<svg width="346" height="278" viewBox="0 0 346 278" xmlns="http://www.w3.org/2000/svg">
    <g fill="none" fill-rule="evenodd">
        <path d="M0 0h346v278H0z"/>
        <path d="M151.348 36.127s7.695-13.258 15.377-21.917c2.167-2.435 8.119-2.951 10.832-1.08 7.43 5.123 11.257 5.558 14.695 4.865 7.37-1.493 10.489 5.184 11.328 12.214.735 6.16-.048 22.578-.048 22.578s-11.354-15.576-22.968-17.271c-11.613-1.696-29.216.611-29.216.611" fill="#005CFF"/>
        <path d="m84.074 35.003.289.098c1.947.695 5.695.63 8.992.321l1.317-.138 1.233-.158.758-.111.695-.115c1.994-.348 3.947 1.139 4.343 3.19.379 1.984-.815 3.942-2.7 4.382l-.547.108-.267.047-.321.05-.37.047c-.525.059-1.17.096-1.895.058.043.213.065.44.063.68l-.004.166-.057.352a4.14 4.14 0 0 1-.28.9 3.288 3.288 0 0 1-.979 1.262l-.042.032.09.02c.817.22 1.548.703 2.064 1.486 1.029 1.564.01 3.703-1.473 5.53l-.312.373-1.105 1.17-2.638 2.768-1.006 1.063-1.374 1.478c-3.368 3.674-6.238 7.258-8.702 12.143l-.368.746c-1.044 2.162-2.014 4.58-2.916 7.362l-.316.998a88.03 88.03 0 0 0-1.207 4.316l-.431 1.762-.281 1.221-.276 1.26-.338 1.63-.33 1.696-.259 1.403c-1.582 12.458-.233 26.138 5.466 37.464 8.31 16.51 27.854 15.326 46.253 8.2l1.597-.635c.53-.216 1.06-.437 1.589-.662l1.58-.69 1.568-.713c1.041-.484 2.074-.983 3.096-1.495l1.524-.778c.505-.263 1.007-.528 1.506-.796l1.485-.812a121.919 121.919 0 0 0 3.613-2.09l1.4-.855 1.372-.864.675-.435 1.325-.873c.219-.146.436-.292.651-.438 5 2.579 4.543 8.224 2.616 13.504l-.292.77c-.05.128-.1.255-.153.382l-.318.757-.426.952-.444.928-.303.603-.306.59-.384.714-.383.687-.455.786-.442.737-.425.684-.402.626-.372.562-.338.495-.385.545-.36.48-.139.173-.054.06-.218.208-.832.756-3.795 3.364-12.401 10.871-19.836 17.306c-.222.027-.459.052-.709.074l-.79.058-.867.04-.942.022h-1.012l-1.08-.023-1.144-.047c-.196-.01-.394-.022-.594-.034l-1.233-.088c-.42-.034-.85-.073-1.288-.117l-1.34-.148c-17.955-2.157-48.383-12.8-55.186-50.076-2.392-13.101-2.15-25.015-.672-35.23l.187-1.242.098-.615.205-1.216.215-1.199.226-1.181.236-1.163.245-1.146.254-1.126.261-1.109c.133-.549.269-1.091.407-1.627l.28-1.06.285-1.042.292-1.023.296-1.002.452-1.467.307-.952.309-.932.311-.911 2.726-8.42 1.108-3.395 1.138-3.462 1.157-3.487.776-2.317 1.163-3.434.77-2.243.761-2.193.797-2.259.2-.518.269-.653.17-.392.407-.893.237-.492.259-.514.28-.534.458-.824c1.553-2.688 3.816-5.606 6.58-6.316l.13-.174c1.365-1.8 3.585-3.654 7.065-3.393a7.961 7.961 0 0 1 1.668.3l.394.127.227-.152c2.696-1.737 6.012-1.706 8.94.05l.377.239.29.063c.241.057.487.122.74.204zm-.401 9.064c-3.713 4.163-4.06 8.248-3.032 12.387 2.02-3.63 5.259-6.407 7.627-8.095l.73-.504.444-.294.407-.26.638-.387-.246-.045-.291-.063-.323-.08-.353-.097-.8-.256-.447-.162-.728-.292-.525-.228-.557-.258-.74-.368-.79-.42a36.52 36.52 0 0 1-1.014-.578z" fill="#FFC8E9"/>
        <path d="M131.611 136.997c-9.152 4.097-19.357 7.22-28.847 8.118-3.164.3-13.113 17.405-5.812 40.428 4.375.428 7.902.383 10.026.124 0 0 13.025-11.34 23.645-20.637l.988-28.033z" fill="#FF9700"/>
        <path d="M53.76 164.28c18.083 20.893 44.916 22.403 53.217 21.39l8.687-7.574c.483-3.762.821-6.584.821-6.584-35.877 16.376-64.776-10.617-65.466-11.187l2.742 3.955z" fill="#FF9FD1"/>
        <path d="M106.977 185.667s3.664-3.187 8.686-7.57c.003 0 .003-.003.003-.003.48-3.76.819-6.581.819-6.581-7.547 3.444-14.79 4.769-21.528 5.242.421 2.707 1.068 5.867 1.994 8.788 4.376.428 7.903.383 10.026.124zM211.098 62.767c1.916 26.935-21.22 31.188-28.174 43.985.523-19.05-29.47-2.487-39.324 0-14.028 3.542-21.64-9.973-20.638-19.845 1.568-15.48 18.94-13.114 16.658-28.245-1.864-12.339 8.257-22.964 20.216-20.519 12.027 2.46 9.966-5.954 22.138-7.262 19.857-2.131 19.397 15.413 19.397 19.235 0 0 8.883.827 9.727 12.65z" fill="#FD5C00"/>
        <path d="M139.124 59.918a31.853 31.853 0 0 1-3.93-4.331l-.509-.684-.536-.688a44.42 44.42 0 0 1-.26-.344l-.505-.69-.484-.689-.461-.688c-.075-.115-.15-.23-.222-.345l-.426-.687-.402-.686c-.13-.228-.255-.456-.376-.684l-.35-.681c-.112-.227-.22-.453-.323-.679l-.296-.675c-3.047-7.297-1.067-13.931 10.628-17.333 20.783-6.05 34.591-5.05 50.724.957.474.176.954.366 1.439.567l.976.417.988.45a56.34 56.34 0 0 1 2.512 1.25l1.016.55 1.02.578c.171.098.341.198.512.298l1.023.616 1.023.64c.682.436 1.362.887 2.039 1.353l1.012.709c.504.36 1.005.728 1.503 1.103l.99.76c.165.129.329.258.492.388l.973.788c.322.266.641.534.958.806l.943.822.465.417.915.846.895.86c7.52 7.368 12.658 16.196 10.616 23.997l-.058.183a11.85 11.85 0 0 1-1.197 2.963l-.035.058c-2.223 4.004-6.825 6.486-14.236 7.437a40.029 40.029 0 0 0-3.252-12.752l-.393-.822-.643-1.3-.482-.937a31.072 31.072 0 0 0-2.264-3.518 44.902 44.902 0 0 0-5.741-5.51c-8.46-6.612-17.948-9.106-25.42-9.985l-1.163-.126-1.126-.1-1.088-.08-1.046-.057-1.002-.04-.955-.025-.906-.01-1.26.005c-4.518.062-9.788.99-14.007 3.433-3.816 2.21-6.772 5.66-7.535 10.832l-.094 1.663-.68-.6z" fill="#003CE5"/>
        <path d="M183.8 124.315c-5.454-2.817-22.255-5.994-22.255-5.994l-13.722 9.806c-5.451 3.659-11.144 6.557-17.834 9.546-4.836 4.114-4.871 11.47-17.017 27.756-15.748 21.113 3.213 34.958 0 46.88C107.637 232.102 62.042 277.976 62 278h90c6.262-.847 49.772-82.673 49.772-82.673l35.2-55.498c-9.297-21.416-17.946-20.266-27.653-18.577-7.808 1.357-15.756 8.108-25.52 3.063z" fill="#FF9700"/>
        <path d="M172.908 190.903c-2.665 10.718 8.498 13.95 2.661 27.919C170.344 230.819 145.546 274.834 120 278h33c15.912-18.277 48.769-82.672 48.769-82.672l8.54-13.871s-9.962-50.222-15.196-25.448c-3.836 25.356-19.544 24.19-22.205 34.893z" fill="#FD5C00"/>
        <path d="m207.568 186.054 23.228-37.809 9.392-8.532c-2.606-28.267-27.322-19.623-33.966-17.683-10.038 7.262-13.095 48.56 1.346 64.024z" fill="#FF9700"/>
        <path d="m186.706 61.425-.168.499-.125.42-.093.343-.145.598-.096.452-.09.489-.083.524-.038.274-.064.57c-.01.098-.018.196-.027.296l-.038.61c-.118 2.587.325 5.751 2.422 8.456l.26.322c1.245 1.49 1.772 3.123.625 5.626a13.44 13.44 0 0 1-.518.997l-.707 1.22-.267.487c-.726 1.379-1.15 2.777-.18 4.38l2.886-2.668.178-.151.231-.18c.637-.465 1.683-1.011 2.437-.305.87.817.465 1.865.098 2.473l-.133.206a3.97 3.97 0 0 1-.06.085l-.173.216-.502.522-.743.82-.558.649-.62.755-.663.85-.457.617-.463.651c-.155.223-.31.451-.463.684l-.458.714-.447.74c-.44.754-.856 1.543-1.223 2.355-1.897 4.195-2.74 6.896-3.318 9.733l-.194 1.01-.18 1.036-.258 1.641-.473 3.14-.039.438-.034.649-.01.408.003.702.017.52.034.554.053.583c.273 2.583 1.167 5.827 3.766 7.689 4.998 1.907 9.527.874 13.827-.632l.988-.354 3.405-1.277.96-.347.955-.326.705-.226 1.825-.542.98-.281.522-.145 1.107-.293a51.63 51.63 0 0 1 4.4-.936c-.075.147-.14.287-.222.439-8.652 16.077-29.716 29.987-55.789 33.94-9.458 1.435-17.295.07-23.357-2.24l-.967-.383-.472-.197-.92-.404a40.604 40.604 0 0 1-1.746-.844l-.825-.435a39.699 39.699 0 0 1-.4-.22l-.778-.445a38.4 38.4 0 0 1-1.458-.902l-.68-.452a36.6 36.6 0 0 1-.328-.226l-.631-.45-.599-.447-.565-.441-.532-.435-.5-.425-.465-.414-.432-.402-.398-.388-.364-.372-.33-.354-.297-.334-.262-.314-.227-.29-.192-.265-.158-.24a4.302 4.302 0 0 1-.066-.108l-.105-.196a1.906 1.906 0 0 1-.04-.087l-.053-.149c-.035-.132-.017-.214.055-.238a111.619 111.619 0 0 0 8.75-3.317l.061-.057c6.245-2.79 11.618-5.5 16.74-8.824l.733-.484-.068-.798-.03-.408-.048-.84-.036-.875-.013-.454-.015-.945-.003-1 .01-1.063.022-1.134.035-1.213.048-1.298.06-1.391c.119-2.648-.486-5.27-2.079-7.387-4.771-6.35-6.013-16.04-.373-32.141l.31-.86.33-.857.344-.854.177-.425.362-.842.37-.83.566-1.216.569-1.17.376-.751.733-1.415.688-1.277.763-1.367.81-1.392.424-.7c5.597 3.16 11.178 2.066 16.503.333l1.179-.395 1.75-.611 1.156-.408 1.713-.592c4.534-1.52 8.794-2.488 12.61-.364z" fill="#FFC8E9"/>
        <path d="M147.507 128.329c-4.988 3.35-9.869 5.858-15.84 8.585l-.055.082s7.923-2.627 19.21 1.153c0 0-3.315-2.721-3.315-9.82zM176.544 108.072c-.976-3.952-3.791 6.049-19.955 6.166-6.855.05-11.283-5.093-13.58-8.746a19.364 19.364 0 0 0 2.337 4.067 10.556 10.556 0 0 1 2.126 6.649s2.397 7.7 8.963 8.108c10.04.623 21.201-11.824 20.109-16.244" fill="#FF9FD1"/>
        <path d="M167.543 93.23a.786.786 0 0 1 .427 1.026c-.239.577-.768 1.386-1.675 2.184-1.68 1.48-4.023 2.278-7.08 2.053a.786.786 0 1 1 .115-1.568c2.634.193 4.56-.463 5.926-1.665a5.65 5.65 0 0 0 .998-1.142l.174-.287.088-.175a.787.787 0 0 1 1.027-.427zm-8.112-12.791a.491.491 0 0 1 .307.623c-1.188 3.495-2.857 6.896-5.03 9.367l-.267.294.035.008c.65.128 1.77-.057 3.403-.615l.293-.102a.492.492 0 0 1 .33.926c-2.069.735-3.484.965-4.396.713a.934.934 0 0 1-.43-1.549c2.209-2.367 3.928-5.818 5.131-9.358a.492.492 0 0 1 .624-.307zm14.043 2.596.148.228.284-.031c.213-.02.426-.03.636-.032l.313.007c.329.016.63.062.902.143a.656.656 0 1 1-.377 1.256 2.537 2.537 0 0 0-.59-.089 6.002 6.002 0 0 0-1.036.05l-.345.054a.656.656 0 0 1-.705-.332c-1.352-2.506-3.694-2.631-4.984-1.261a.656.656 0 0 1-.955-.9c1.746-1.852 4.838-1.818 6.709.907zm-21.592-6.681a2.025 2.025 0 1 1 .002 4.05 2.025 2.025 0 0 1-.002-4.05zm18.677-5.192.08.121c.095.163.432.526 1.084.932 1.56.971 3.883 1.454 7.166 1.108a1.5 1.5 0 1 1 .315 2.982c-3.927.414-6.92-.208-9.067-1.545-1.086-.676-1.753-1.395-2.082-1.954a1.5 1.5 0 0 1 2.504-1.644zm-14.078-2.604c.77.34 1.342.687 1.686.944a1.5 1.5 0 0 1-1.64 2.504l-.507-.328-.26-.142-.313-.154a8.93 8.93 0 0 0-.175-.08c-2.685-1.182-5.51-.934-8.299 1.811a1.5 1.5 0 0 1-2.104-2.137c3.754-3.695 7.888-4.058 11.612-2.418z" fill="#002199"/>
        <path d="M191.642 145.206c4.19-4.53 12.354-4.435 16.562 0 4.59 4.837 7.724 11.367 9.509 17.685 3.12 11.048 2.055 22.303-1.356 32.964l.964.295-1.914 44.724-7.314-1.932c-3.977-1.217-6.984-2.952-9.227-4.724l-.453-.367a23.806 23.806 0 0 1-.431-.368l-.41-.366c-.068-.06-.133-.122-.198-.182l-.38-.364-.183-.18-.35-.358-.167-.178-.321-.35-.302-.346-.284-.338-.266-.33-.248-.32-.23-.312a19.56 19.56 0 0 1-.11-.152l-.206-.294-.19-.283-.173-.27-.232-.377-.258-.45-.157-.29-.162-.323-.112-.24-.085-.2c-3.955-5.723-4.813-12.243-4.56-17.682l.04-.719c.007-.119.015-.237.024-.354l.058-.698c.01-.115.021-.23.033-.343l.073-.675.04-.33.086-.65.094-.63.1-.612.106-.591.054-.288.112-.559.114-.536.116-.513.174-.723.116-.45.169-.622.212-.73.232-.74.235-.684.088-.238.268-.62.244-.578.33-.81 1.162-2.947.39-.958.297-.71.333-.783.182-.42c.418-1.237.79-2.487 1.118-3.748.357-1.376.66-2.766.906-4.166l.023-.146.046-.362.044-.427.058-.699.032-.46.021-.44.012-.483.004-.515-.005-.542-.01-.56-.018-.572-.035-.863-.029-.568-.083-1.341-.088-1.138-.05-.536-.044-.398-.025-.175a38.6 38.6 0 0 0-.756-3.014l-.08-.255-.189-.547-.163-.451-.289-.77-.215-.553-.228-.567-.236-.566-.24-.55c-.398-.895-.789-1.66-1.073-1.98-.22-.248-.417-.515-.646-.756-4.49-4.732-4.398-11.68 0-16.433z" fill="#FFC8E9"/>
        <path d="M288.112 96.627c23.432 0 18.704 16.944 18.704 16.944l-24.103 126.415-1.148 5.998s-2.508 13.131-16.509 12.924c-14-.208-59.678.002-59.678.002s-9.861-.119-10.079-13.254c42.342 10.383 69.312 6.264 80.91-12.358 5.092-24.548 11.085-52.714 23.423-122.8-.019-3.056-3.859-7.68-11.52-13.871z" fill="#0B7EFF"/>
        <path d="m196.12 238.541 25.57-134.23s.916-7.295 9.167-7.113c6.056.133 35.829-.01 51.247-.097 5.59-.03 9.294-.055 9.294-.055s11.931-.504 9.1 13.919c-2.83 14.422-24.897 128.53-24.897 128.53s-1.383 12.941-14.12 12.67c-12.736-.27-59.097.004-59.097.004s-10.126.594-6.264-13.628" fill="#FFF"/>
        <path d="m215.146 228.301 40.703.074c3.987.007 7.22 3.187 7.224 7.101.003 3.917-3.227 7.084-7.214 7.077l-40.702-.075c-3.988-.006-7.223-3.186-7.224-7.101-.003-3.916 3.227-7.084 7.213-7.076zm57.422-126.74c.547 0 .993.672.993 1.494 0 .821-.446 1.493-.993 1.493h-19.92c-.547 0-.994-.672-.994-1.493 0-.822.447-1.494.994-1.494h19.92zm-23.623-.138a1.5 1.5 0 0 1 1.505 1.494 1.5 1.5 0 0 1-1.505 1.493 1.5 1.5 0 0 1-1.506-1.493 1.5 1.5 0 0 1 1.506-1.494z" fill="#0B7EFF"/>
        <path d="m291.83 96.031-16.449.094-16.656.075-13.241.035-9.225-.005-3.6-.022-1.412-.02a75.579 75.579 0 0 1-.159-.004c-4.05-.089-6.921 1.45-8.71 4.056-1.036 1.51-1.505 3.01-1.638 4.068l-25.56 134.005c-1.636 6.006-1 10.192 1.461 12.685 1.653 1.674 3.754 2.291 5.707 2.313l12.384-.063 13.998-.048 10.657-.015 8.856.007 8.317.042 3.148.035 1.954.034c6.064.129 10.301-2.495 12.921-6.894a18.483 18.483 0 0 0 1.943-4.644c.052-.19.098-.373.14-.547l.112-.494.085-.436c.025-.135.045-.26.062-.374l.04-.307 24.882-128.283c1.233-6.272-.076-10.568-3.296-13.06-2.087-1.617-4.54-2.21-6.72-2.233zm-.012 2.33a9.806 9.806 0 0 1 2.156.283c1.168.282 2.243.758 3.15 1.461 2.416 1.87 3.46 5.156 2.508 10.393l-12.878 66.344-12.092 62.42-.036.258-.05.305c-.07.4-.169.848-.3 1.333a16.183 16.183 0 0 1-1.694 4.059c-2.158 3.622-5.522 5.76-10.494 5.76l-4.368-.062-6.89-.044-8.299-.016-8.762.006-10.224.024-16.053.066-5.132.03c-1.385-.015-2.923-.467-4.06-1.62-1.802-1.824-2.308-5.162-.85-10.524l25.59-134.166.016-.104.046-.244a7.97 7.97 0 0 1 1.197-2.765c1.306-1.902 3.345-3.036 6.406-3.048l4.17.044 4.58.013 6.742-.003 12.537-.035 18.384-.083 14.7-.085z" fill="#0B7EFF"/>
        <path d="M265.763 153.515a5.477 5.477 0 0 1 7.375 8.094l-.18.164-26.303 22.904a5.478 5.478 0 0 1-7.43-.218l-.177-.18-10.94-11.754a5.478 5.478 0 0 1 7.844-7.64l.176.18 7.33 7.873 22.305-19.423z" fill="#FF7800"/>
        <path d="M291.075 131.348c2.907.41 5.798 1.358 8.526 2.431 7.566 2.977 14.352 7.048 20.229 12.836 4.46 4.393 3.988 11.59 0 16.044-2.006 2.24-4.795 3.273-7.61 3.262.518.456 1.03.923 1.534 1.4 4.546 4.302 4.04 11.41 0 15.775-2.433 2.63-5.985 3.563-9.368 3.086a52.658 52.658 0 0 1 4.318 4.038c4.327 4.526 4.21 11.224 0 15.774-2.152 2.326-5.38 3.378-8.538 3.209a52.986 52.986 0 0 1 1.75 1.634c3.097 3.022 3.867 7.291 2.696 11.1-1.524 7.46-8.084 10.797-13.49 12.288l-.822.215-.799.188c-.13.03-.26.057-.389.084l-.754.15-1.063.185-.656.097-.892.112-.766.078-.623.05-.848.043.578-2.675c.153-1.275.394-2.648.672-4.107l.53-2.716c-.28-.263-.563-.516-.848-.767l-1.398-1.21-.918-.63-.895-.597a51.744 51.744 0 0 0-5.581-3.118l-1.199-.554-.89-.337a36.898 36.898 0 0 0-1.108-.384l-.561-.173c-6.044-1.75-9.223-7.752-7.853-13.722 1.335-5.812 8.187-9.424 13.83-7.79l.517.152c-1.12-.387-2.251-.737-3.409-1l-.873-.179c-6.184-1.134-9.11-8.249-7.853-13.722 1.252-5.453 6.51-8.146 11.673-8.014l.517.023c.368.023.734.06 1.097.112l.723.122 1.244.168c-3.137-.416-5.595-1.122-7.95-3.267-2.208-2.01-3.163-5.003-3.293-7.888-.126-2.779 1.343-5.953 3.293-7.888 1.782-1.767 5.315-3.616 7.95-3.267l.612.085c-3.958-2.526-5.62-8.47-4.655-12.812.601-2.705 2.79-5.403 5.086-6.78 2.806-1.684 5.442-1.579 8.527-1.144z" fill="#FFC8E9"/>
        <path d="m277.058 195.992.1.021c10.02 2.814 17.774 6.986 23.252 12.527a.747.747 0 1 1-1.062 1.05c-5.28-5.34-12.808-9.39-22.595-12.139a.747.747 0 0 1 .305-1.459zm2.533-22.09.1.014c10.193 2.109 18.22 5.73 24.07 10.875a.747.747 0 1 1-.986 1.121c-5.64-4.959-13.431-8.474-23.386-10.533a.747.747 0 0 1 .202-1.476zm4.874-21.696.1.012c11.024 2.074 19.918 6.07 26.67 11.995a.747.747 0 1 1-.985 1.123c-6.538-5.738-15.187-9.624-25.96-11.65a.747.747 0 0 1 .175-1.48zM80.67 56.547a.284.284 0 0 1-.095.388l-.548.337-1.094.703-.851.573-.307.213-.64.453-.665.488-.678.516a38.52 38.52 0 0 0-.34.268l-.675.551c-1.002.841-1.946 1.74-2.651 2.62a.273.273 0 0 1-.392.034.296.296 0 0 1-.078-.104.288.288 0 0 1 .035-.297c.642-.803 1.463-1.61 2.343-2.375l.669-.565c.225-.185.452-.367.68-.545l.678-.52.666-.49.952-.671.586-.398 1.004-.656.823-.513.195-.117a.28.28 0 0 1 .383.107zm-6.457-21.963c1.18.54 2.202 1.364 3.039 2.452.753.979 1.339 2.19 1.752 3.597.04.004.08.021.116.048a50.232 50.232 0 0 0 4.436 2.974c.135.08.184.254.11.39a.27.27 0 0 1-.379.102 49.918 49.918 0 0 1-4.07-2.7c.58 2.46.678 5.45.27 8.81l-.107.815c-.312 2.197-2.185 3.512-4.555 3.199-1.222-.162-1.977-.86-2.404-1.438a3.86 3.86 0 0 1-1.175 1.979 3.793 3.793 0 0 1-2.854.97c-1.566-.12-2.707-.916-3.303-2.254-.26-.586-.417-1.276-.46-2.058a29.356 29.356 0 0 1-.098-1.977l-.023-2.084-.02-.47c-.026-.405-.328-.57-.578-.59-.276-.02-.627.13-.71.627a.272.272 0 0 1-.32.226.294.294 0 0 1-.229-.335c.133-.804.76-1.126 1.287-1.086.609.047 1.063.512 1.106 1.133l.012.23.017.85.015 1.496c.009.415.023.85.049 1.29l.048.663c.123 2.286 1.273 3.62 3.234 3.77.909.07 1.78-.226 2.453-.833A3.391 3.391 0 0 0 71.985 52l.017-.39.024-.834.007-.897A36.423 36.423 0 0 0 72 48.447l-.058-.995c-.236-3.18-.995-6.599-2.995-8.352-1.204-1.056-2.716-1.476-4.257-1.183a.287.287 0 0 1-.33-.228.277.277 0 0 1 .214-.332c1.711-.326 3.391.14 4.729 1.314 2.774 2.433 3.304 7.74 3.286 11.585l-.014.892c-.008.287-.018.562-.03.823l.09.176c.296.538.96 1.388 2.247 1.558 1.99.264 3.524-.719 3.899-2.462l.053-.302c.846-5.953.13-10.769-2.016-13.56-.778-1.012-1.728-1.778-2.822-2.277a.294.294 0 0 1-.148-.377.27.27 0 0 1 .365-.143zm9.518.292.851.648.78.572.715.501.653.437.597.378.547.325c.087.05.172.097.255.143l.48.255.443.215.41.18.383.153.36.13.675.213.836.243.701.194.482.148c1.219.406 2.512 1.103 2.943 2.848a.277.277 0 0 1-.2.34.286.286 0 0 1-.34-.214c-.38-1.544-1.58-2.127-2.743-2.49l-1.999-.575-.526-.169-.372-.133-.393-.157-.422-.185a13.576 13.576 0 0 1-.223-.106l-.473-.24-.514-.282-.56-.332-.612-.386-.667-.446c-.117-.08-.236-.162-.357-.248l-.763-.547-.832-.622c-.145-.11-.293-.223-.444-.34a.294.294 0 0 1-.06-.4.272.272 0 0 1 .389-.051z" fill="#003CE5"/>
        <path d="M117.432 32.193c.03.062.056.126.076.191l.505 1.636a1.241 1.241 0 0 1-.786 1.541l-9.25 3.138a1.236 1.236 0 0 1-1.568-.778l-.108-.376a1.242 1.242 0 0 1 .634-1.446l8.836-4.456a1.235 1.235 0 0 1 1.66.55zm-7.881-7.09c.054.033.106.07.153.114l.984.86a.957.957 0 0 1 .113 1.292l-6.336 6.23c-.407.359-.834.424-1.122.221l-.117-.097-.173-.164c-.32-.308-.448-.659-.149-1.159l5.341-6.964a.95.95 0 0 1 1.306-.333zm-8.79-5.683c.065.01.128.027.189.048l1.515.533c.594.21.88.871.645 1.493l-3.43 9.054c-.24.634-.93.988-1.543.791l-.344-.129c-.52-.198-.802-.752-.67-1.32l2.204-9.478c.152-.654.795-1.099 1.435-.992z" fill="#6B97FF"/>
        <path d="M325 105c.852 0 1.554.643 1.652 1.469l.012.188.01.257.016.196.025.234.04.267c.007.047.015.095.025.144l.063.308.083.327.084.278c.534 1.643 1.889 3.667 5.326 3.667a1.665 1.665 0 0 1 0 3.33c-3.475 0-4.823 2.023-5.344 3.664l-.097.333-.076.318-.03.151-.05.286-.033.257-.035.415-.007.247a1.664 1.664 0 0 1-3.32.17l-.025-.515-.02-.214-.053-.387-.055-.294-.072-.318-.036-.135-.082-.278c-.527-1.647-1.877-3.7-5.34-3.7-.92 0-1.661-.745-1.661-1.667 0-.918.742-1.663 1.66-1.663 3.516 0 4.854-2.114 5.364-3.775l.094-.336.073-.318.03-.15.046-.283.032-.25.02-.216.017-.35A1.663 1.663 0 0 1 325 105zm-41.5-29c.52 0 .95.393 1.01.898l.013.271.01.12.015.143.04.252.038.188.051.2c.02.073.044.149.07.225l.087.232c.387.938 1.246 1.953 3.15 1.953a1.017 1.017 0 0 1 0 2.036c-2.125 0-2.948 1.236-3.267 2.239l-.059.203-.046.194-.019.093-.03.174-.02.158-.022.253-.004.151a1.017 1.017 0 0 1-2.029.104l-.015-.314-.012-.131-.033-.237-.033-.18-.045-.194-.03-.112-.073-.233c-.342-.99-1.18-2.168-3.232-2.168A1.016 1.016 0 0 1 278 81.499c0-.561.453-1.017 1.015-1.017 1.75 0 2.617-.857 3.047-1.724l.107-.236a4 4 0 0 0 .123-.346l.058-.206.044-.194.018-.092.029-.173.02-.153.012-.132.01-.214A1.016 1.016 0 0 1 283.5 76z" fill="#E1FEFF"/>
        <path d="M298.912 236.191c.768 0 1.398.591 1.458 1.344l.004.091.002.106.009.17.02.229.025.204.023.15.028.16.035.168.063.265.08.279.064.191.035.097.077.196c.56 1.343 1.796 2.792 4.525 2.792a1.462 1.462 0 1 1 0 2.923c-3.12 0-4.289 1.854-4.726 3.311l-.075.273-.041.176-.035.168-.028.16-.033.224-.016.135-.017.182-.011.196-.004.158a1.463 1.463 0 0 1-2.922.092l-.008-.252-.01-.144-.01-.113-.022-.195-.032-.22-.028-.159-.034-.168-.04-.175-.075-.275-.06-.189-.068-.193-.077-.196c-.558-1.343-1.794-2.796-4.527-2.796a1.46 1.46 0 1 1 0-2.923c2.93 0 4.138-1.668 4.637-3.085l.093-.285.075-.275.058-.26.031-.164.037-.229.025-.204.02-.229.012-.255a1.462 1.462 0 0 1 1.463-1.456zM321.855 195c1.374 0 2.501 1.058 2.608 2.405l.008.163.003.188.016.306.035.409.046.365.04.269.05.285.097.456.079.32.092.33.051.169.114.342.063.173.138.35c1 2.404 3.21 4.997 8.09 4.997a2.614 2.614 0 1 1 0 5.23c-4.351 0-6.58 2.017-7.721 4.142l-.168.328c-.052.109-.103.218-.15.327l-.136.326a9.814 9.814 0 0 0-.062.163l-.113.32c-.036.107-.07.212-.1.317l-.093.328-.042.161-.073.313-.062.302-.05.286-.06.4-.028.243-.03.325-.02.35-.006.282a2.616 2.616 0 0 1-5.226.166l-.014-.45-.017-.258-.018-.204-.04-.348-.057-.393-.05-.285-.061-.3-.073-.313-.108-.408-.13-.422-.122-.346-.138-.35-.07-.164-.152-.33c-.053-.11-.109-.22-.168-.329l-.185-.328c-1.195-2.014-3.41-3.852-7.518-3.852a2.612 2.612 0 0 1-2.613-2.615 2.614 2.614 0 0 1 2.613-2.614c4.679 0 6.903-2.385 7.96-4.7l.143-.33.128-.328.059-.162.114-.342.051-.169.092-.33.041-.162.105-.466.056-.293.065-.409.045-.365.037-.41.02-.456a2.614 2.614 0 0 1 2.615-2.605z" fill="#6B97FF"/>
    </g>
</svg>
