<?xml version="1.0" encoding="UTF-8"?>
<svg width="366px" height="92px" viewBox="0 0 366 92" version="1.1" xmlns="http://www.w3.org/2000/svg" xmlns:xlink="http://www.w3.org/1999/xlink">
    <!-- Generator: Sketch 61.1 (89650) - https://sketch.com -->
    <title>bcp/dark/grey</title>
    <desc>Created with Sketch.</desc>
    <g id="Page-1" stroke="none" stroke-width="1" fill="none" fill-rule="evenodd">
        <g id="bcp/dark/grey" transform="translate(-1.000000, -2.000000)" fill="#ACB2BD">
            <path d="M90.2225722,74.2816546 C90.2225722,74.2816546 89.5231962,77.5583231 92.583731,77.8295097 C94.1313299,77.8784457 95.7768006,77.8784457 97.5058703,77.8784457 C108.540923,77.8784457 118.635998,73.8697772 118.862327,64.0234596 C119.070305,55.2965515 111.214049,52.6662451 101.746984,52.6662451 L95.0672296,52.6662451 L90.2225722,74.2816546 Z M140.28811,64.504663 C140.28811,77.5644401 129.195965,94.7939666 90.8322324,92.6734095 C86.3362435,92.4226128 83.5734023,92.0555933 79.5178369,91.0707577 C65.0674636,87.5555265 70.1506837,70.7032145 70.1506837,70.7032145 L84.8538926,5.48996657 C92.9446335,4.18704735 102.018171,3.39591643 111.338427,3.39591643 C131.856856,3.39591643 145.45289,10.6323175 145.45289,24.175337 C145.45289,36.8558607 133.07006,43.7476713 123.69679,45.3095432 C131.124856,45.8580334 140.28811,51.5244067 140.28811,64.504663 Z M102.774639,18.5395487 L99.0657031,35.3408858 C99.0657031,35.3408858 98.1440764,38.9376769 101.286171,38.9376769 L105.612923,38.9376769 C116.743809,38.9376769 124.453257,34.6272368 124.646962,27.0340111 C124.803965,20.7702117 119.347608,18.0563064 111.599419,18.0563064 C108.057681,18.0563064 104.33855,18.2948691 102.774639,18.5395487 Z M234.094623,92.9087097 L221.915693,92.9087097 L241.227036,5.97402451 C249.213788,4.12873203 257.620573,3.76375153 267.356785,3.84531142 C291.121298,3.93910529 302.01566,12.924966 302.01566,28.5885426 C302.01566,42.941044 290.585041,64.0589382 257.716406,64.0589382 C254.350022,64.0589382 251.454646,63.6776457 249.364674,63.5389939 C249.364674,63.5389939 246.68747,75.6261694 245.095013,82.7483866 C243.08864,91.6893894 237.210211,92.9087097 234.094623,92.9087097 Z M260.51391,19.1724535 L255.145231,43.4120524 C255.145231,43.4120524 253.414122,48.5645983 259.594323,48.5645983 C260.356908,48.5972223 261.18474,48.6196513 262.096172,48.6196513 C275.912417,48.5136234 283.008128,39.5032947 283.008128,30.1748825 C283.008128,20.997356 276.666846,18.7401861 269.032841,18.7401861 C265.134278,18.7401861 262.208317,18.9236958 260.51391,19.1724535 Z M173.705643,54.5007309 C173.705643,68.2231822 181.676083,76.9969872 195.349598,76.9969872 C200.97927,76.9969872 207.130924,76.0529315 215.427604,69.9685638 L212.175403,84.5840958 C212.175403,84.5840958 211.272128,89.4328312 205.883058,91.3168646 C201.505331,92.9582574 196.887002,93.7045304 189.887125,93.7045304 C170.388195,93.7045304 151.360273,84.1049315 151.360273,55.6609203 C151.360273,29.0540457 168.410367,2.01082563 201.32386,2.01082563 C207.781364,2.01082563 212.346679,2.92021838 218.192484,4.80629081 C227.206891,7.71390084 228.301832,12.5952602 227.704406,15.5212212 C227.094746,18.5165081 224.968072,25.7141682 224.968072,25.7141682 C219.297621,20.6492992 209.420718,19.2240401 203.929699,19.2240401 C182.891325,19.2240401 173.705643,40.3500903 173.705643,54.5007309 Z M362.094662,33.577561 C362.757336,34.4767588 370.623788,44.2680234 363.37923,55.8454496 C355.44957,68.5137393 333.809693,82.9539175 327.678428,85.1193326 C315.754372,90.1087588 307.681983,80.8557894 306.992801,79.8852267 C304.768255,77.0204357 304.227921,76.4148535 303.151331,74.3248813 C302.941314,74.6715109 326.043152,63.9259955 334.317403,50.0241125 C343.280835,38.0837448 344.061771,14.6617838 334.272545,10.2575499 C337.233169,11.7480568 344.208579,15.7526474 350.502963,21.3619287 C356.783074,26.6857504 362.212924,33.6672769 362.094662,33.577561 Z M334.634738,43.1420891 C327.278036,35.165532 319.517613,30.3433036 313.78803,27.5947354 C313.78803,27.5947354 310.996643,26.2102563 309.53876,25.4150474 C311.663395,20.6397159 314.458861,17.2284735 314.458861,17.2284735 C314.854426,16.7126072 323.322381,6.76230084 330.770838,10.2571421 C338.906437,13.9171421 339.73427,30.7164401 334.634738,43.1420891 Z M60.5197721,33.577561 C61.1824462,34.4767588 69.0488974,44.2680234 61.8043403,55.8454496 C53.8746802,68.5137393 32.2348027,82.9539175 26.1035381,85.1193326 C14.1794824,90.1087588 6.10709242,80.8557894 5.41791137,79.8852267 C3.19336541,77.0204357 2.65303114,76.4148535 1.57644061,74.3248813 C1.3664239,74.6715109 24.4682623,63.9259955 32.742513,50.0241125 C41.7059448,38.0837448 42.4868807,14.6617838 32.6976551,10.2575499 C35.6582791,11.7480568 42.6336885,15.7526474 48.9280729,21.3619287 C55.2081843,26.6857504 60.6380339,33.6672769 60.5197721,33.577561 Z M33.0598479,43.1420891 C25.703146,35.165532 17.9427226,30.3433036 12.2131404,27.5947354 C12.2131404,27.5947354 9.4217532,26.2102563 7.96387019,25.4150474 C10.0885053,20.6397159 12.8839705,17.2284735 12.8839705,17.2284735 C13.2795359,16.7126072 21.7474914,6.76230084 29.1959482,10.2571421 C37.3315471,13.9171421 38.1593799,30.7164401 33.0598479,43.1420891 Z" id="Shape"></path>
        </g>
    </g>
</svg>