<?xml version="1.0" encoding="UTF-8"?>
<svg width="366px" height="92px" viewBox="0 0 366 92" version="1.1" xmlns="http://www.w3.org/2000/svg" xmlns:xlink="http://www.w3.org/1999/xlink">
    <!-- Generator: Sketch 61.1 (89650) - https://sketch.com -->
    <title>bcp/dark/default</title>
    <desc>Created with Sketch.</desc>
    <g id="Page-1" stroke="none" stroke-width="1" fill="none" fill-rule="evenodd">
        <g id="bcp/dark/default" transform="translate(-1.000000, -2.000000)">
            <path d="M91.5726641,74.2816546 C91.5726641,74.2816546 90.873288,77.5583231 93.9338228,77.8295097 C95.4814217,77.8784457 97.1268925,77.8784457 98.8559621,77.8784457 C109.891015,77.8784457 119.98609,73.8697772 120.212419,64.0234596 C120.420397,55.2965515 112.56414,52.6662451 103.097076,52.6662451 L96.4173214,52.6662451 L91.5726641,74.2816546 Z M141.638202,64.504663 C141.638202,77.5644401 130.546057,94.7939666 92.1823242,92.6734095 C87.6863354,92.4226128 84.9234942,92.0555933 80.8679287,91.0707577 C66.4175554,87.5555265 71.5007755,70.7032145 71.5007755,70.7032145 L86.2039844,5.48996657 C94.2947253,4.18704735 103.368263,3.39591643 112.688519,3.39591643 C133.206948,3.39591643 146.802982,10.6323175 146.802982,24.175337 C146.802982,36.8558607 134.420152,43.7476713 125.046881,45.3095432 C132.474948,45.8580334 141.638202,51.5244067 141.638202,64.504663 Z M104.124731,18.5395487 L100.415795,35.3408858 C100.415795,35.3408858 99.4941682,38.9376769 102.636263,38.9376769 L106.963015,38.9376769 C118.093901,38.9376769 125.803349,34.6272368 125.997054,27.0340111 C126.154057,20.7702117 120.6977,18.0563064 112.949511,18.0563064 C109.407773,18.0563064 105.688642,18.2948691 104.124731,18.5395487 Z M235.444715,92.9087097 L223.265785,92.9087097 L242.577128,5.97402451 C250.56388,4.12873203 258.970665,3.76375153 268.706877,3.84531142 C292.471389,3.93910529 303.365752,12.924966 303.365752,28.5885426 C303.365752,42.941044 291.935133,64.0589382 259.066498,64.0589382 C255.700114,64.0589382 252.804738,63.6776457 250.714765,63.5389939 C250.714765,63.5389939 248.037562,75.6261694 246.445105,82.7483866 C244.438732,91.6893894 238.560303,92.9087097 235.444715,92.9087097 Z M261.864002,19.1724535 L256.495323,43.4120524 C256.495323,43.4120524 254.764214,48.5645983 260.944414,48.5645983 C261.706999,48.5972223 262.534832,48.6196513 263.446264,48.6196513 C277.262509,48.5136234 284.358219,39.5032947 284.358219,30.1748825 C284.358219,20.997356 278.016938,18.7401861 270.382933,18.7401861 C266.48437,18.7401861 263.558409,18.9236958 261.864002,19.1724535 Z M175.055735,54.5007309 C175.055735,68.2231822 183.026175,76.9969872 196.69969,76.9969872 C202.329362,76.9969872 208.481016,76.0529315 216.777696,69.9685638 L213.525495,84.5840958 C213.525495,84.5840958 212.622219,89.4328312 207.23315,91.3168646 C202.855423,92.9582574 198.237094,93.7045304 191.237217,93.7045304 C171.738286,93.7045304 152.710364,84.1049315 152.710364,55.6609203 C152.710364,29.0540457 169.760459,2.01082563 202.673952,2.01082563 C209.131456,2.01082563 213.696771,2.92021838 219.542576,4.80629081 C228.556983,7.71390084 229.651924,12.5952602 229.054498,15.5212212 C228.444838,18.5165081 226.318164,25.7141682 226.318164,25.7141682 C220.647713,20.6492992 210.77081,19.2240401 205.279791,19.2240401 C184.241417,19.2240401 175.055735,40.3500903 175.055735,54.5007309 Z M36.0436334,43.1420891 C28.6869315,35.165532 20.9265081,30.3433036 15.1969259,27.5947354 C15.1969259,27.5947354 12.4055387,26.2102563 10.9476557,25.4150474 C13.0722908,20.6397159 15.867756,17.2284735 15.867756,17.2284735 C16.2633214,16.7126072 24.7312769,6.76230084 32.1797337,10.2571421 C40.3153326,13.9171421 41.1431655,30.7164401 36.0436334,43.1420891 Z M338.278481,43.1420891 C330.921779,35.165532 323.161356,30.3433036 317.431774,27.5947354 C317.431774,27.5947354 314.640387,26.2102563 313.182504,25.4150474 C315.307139,20.6397159 318.102604,17.2284735 318.102604,17.2284735 C318.498169,16.7126072 326.966125,6.76230084 334.414582,10.2571421 C342.550181,13.9171421 343.378013,30.7164401 338.278481,43.1420891 Z" id="Shape" fill="#FFFFFF"></path>
            <path d="M61.2851955,55.8454496 C53.3534964,68.5137393 31.7156579,82.9539175 25.5843933,85.1193326 C13.6603376,90.1087588 5.58794763,80.8557894 4.89876657,79.8852267 C2.67422061,77.0204357 2.13388635,76.4148535 1.05729582,74.3248813 C0.847279109,74.6715109 23.9470786,63.9259955 32.2233682,50.0241125 C41.1868,38.0837448 41.9677359,14.6617838 32.1785103,10.2575499 C35.1391343,11.7480568 42.1145437,15.7526474 48.4089281,21.3619287 C54.6890396,26.6857504 60.1168501,33.6672769 60.0006273,33.577561 C60.6633014,34.4767588 68.5297526,44.2680234 61.2851955,55.8454496 Z M362.235475,33.577561 C362.898149,34.4767588 370.764601,44.2680234 363.520043,55.8454496 C355.590383,68.5137393 333.950506,82.9539175 327.819241,85.1193326 C315.895186,90.1087588 307.822796,80.8557894 307.133614,79.8852267 C304.909069,77.0204357 304.368734,76.4148535 303.292144,74.3248813 C303.082127,74.6715109 326.183965,63.9259955 334.458216,50.0241125 C343.421648,38.0837448 344.202584,14.6617838 334.413358,10.2575499 C337.373982,11.7480568 344.349392,15.7526474 350.643776,21.3619287 C356.923887,26.6857504 362.353737,33.6672769 362.235475,33.577561 Z" id="Shape" fill="#FF7800"></path>
        </g>
    </g>
</svg>