<svg height="40" viewBox="0 0 161 40" width="161" xmlns="http://www.w3.org/2000/svg">
  <g fill="#FFF" fill-rule="evenodd">
    <path
      d="M44.503 7.137c.676-.105 2.282-.21 3.813-.21 3.343 0 5.697 1.046 5.63 3.747-.083 3.282-3.411 5.014-8.218 5.014H43.86c-1.358 0-.96-1.427-.96-1.427l1.602-7.124zm16.196 19.845c0-5.603-3.955-8.052-7.165-8.287 4.05-.674 9.395-3.652 9.395-9.124 0-5.851-5.87-8.976-14.727-8.976-4.026 0-7.942.342-11.437.906l-6.348 28.156s-2.196 7.278 4.044 8.793c1.749.428 2.944.589 4.884.695 16.566.917 21.354-6.527 21.354-12.163zm-21.617 3.63l2.092-9.924h2.884c4.09 0 7.48 1.729 7.389 5.495-.097 4.252-4.456 6.279-9.22 6.279-.745 0-1.457-.148-2.124-.171-1.321-.116-1.021-1.679-1.021-1.679zM112.612 7.41c.733-.11 1.995-.188 3.679-.188 3.296 0 6.034.974 6.034 4.937 0 4.028-3.063 7.917-9.03 7.964-.394 0-.752-.009-1.08-.026-2.668 0-1.921-2.224-1.921-2.224l2.318-10.463zm-11.408 31.277c1.346 0 3.885-.243 4.749-4.105.694-3.077 1.845-8.158 1.845-8.158.902.063 2.154.297 3.608.297 14.191 0 19.126-9.087 19.126-15.282 0-6.762-4.705-10.624-14.964-10.664-4.203-.036-7.833-.149-11.283.648l-8.338 37.264h5.257zM75.128 22.662c0-6.108 3.967-15.23 13.053-15.23 2.372 0 6.635.616 9.084 2.801 0 0 .918-3.108 1.183-4.402.257-1.265-.216-3.37-4.11-4.626C91.815.39 89.842 0 87.054 0 72.845 0 65.48 11.677 65.48 23.164c0 12.281 8.22 16.425 16.636 16.425 3.023 0 5.018-.32 6.908-1.03 2.328-.814 2.716-2.91 2.716-2.91l1.405-6.308c-3.582 2.627-6.238 3.036-8.67 3.036-5.903 0-9.347-3.79-9.347-9.715M25.451 13.629c.287.389 3.683 4.617.557 9.615-3.425 5.469-12.769 11.705-15.418 12.639-5.149 2.156-8.633-1.841-8.93-2.261C.7 32.386.464 32.124 0 31.222c-.088.149 9.928-4.575 13.456-10.493 3.527-5.915 4.16-14.131.663-16.766-.05-.038-.102-.072-.15-.105-.042-.03-.074-.058.01-.016 1.465.79 4.08 2.385 6.468 4.512 2.711 2.3 5.054 5.313 5.004 5.275"/>
    <path
      d="M12.472 18.368c2.526-5.221 2.617-12.483-.795-14.274C8.56 2.39 4.649 6.452 4.463 6.664c0 0-1.294 1.397-2.338 3.399a75.987 75.987 0 0 0 1.774 1.05c2.398 1.339 5.615 3.623 8.573 7.255M158.141 13.629c.286.389 3.685 4.617.555 9.615-3.423 5.469-12.767 11.705-15.416 12.639-5.147 2.156-8.633-1.841-8.93-2.261-.96-1.236-1.195-1.498-1.66-2.4-.088.149 9.93-4.575 13.456-10.493 3.53-5.915 4.16-14.131.663-16.766a3.788 3.788 0 0 0-.15-.105c-.04-.03-.072-.058.01-.016 1.465.79 4.08 2.385 6.468 4.512 2.711 2.3 5.055 5.313 5.004 5.275"/>
    <path
      d="M145.162 18.368c2.526-5.221 2.617-12.483-.795-14.274-3.116-1.704-7.028 2.358-7.214 2.57 0 0-1.294 1.397-2.338 3.399a75.987 75.987 0 0 0 1.774 1.05c2.398 1.339 5.615 3.623 8.573 7.255"/>
  </g>
</svg>
