<svg width="160" height="160" viewBox="0 0 160 160" xmlns="http://www.w3.org/2000/svg" xmlns:xlink="http://www.w3.org/1999/xlink">
    <defs>
        <path d="M19.074 93.512c-17.109 18.027-2.027 55.763 56.057 55.82 62.19.06 64.313-13.278 64.145-32.45-.116-13.227 2.137-24.57 6.76-34.03 4.704-25.938-3.796-49.282-32.553-51.172-28.757-1.89-27.963-6.2-27.963-6.2S69.203 11.558 51.643 11.556c-8.782 0-18.368 2.791-27.38 11.17-27.031 25.132 11.919 52.758-5.19 70.786z" id="c6xoyd6afa"/>
    </defs>
    <g fill="none" fill-rule="evenodd">
        <use fill="#EDF6FC" xlink:href="#c6xoyd6afa"/>
        <path d="M63.666 27.88s4.239-7.304 8.47-12.075c1.194-1.342 4.473-1.626 5.967-.595 4.094 2.822 6.202 3.062 8.095 2.68 4.06-.822 5.778 2.857 6.24 6.73.406 3.393-.026 12.44-.026 12.44s-6.255-8.582-12.652-9.517c-6.397-.934-16.094.338-16.094.338" fill="#0A1B64"/>
        <path d="m26.607 27.26.16.055c1.072.383 3.137.347 4.953.177l.725-.076.68-.087.417-.062.383-.063c1.098-.191 2.174.628 2.392 1.758.209 1.093-.449 2.172-1.487 2.414l-.302.06-.147.026-.176.027-.204.026a6.414 6.414 0 0 1-1.044.032c.024.117.036.242.035.374l-.002.092-.032.194c-.036.185-.089.35-.155.496a1.888 1.888 0 0 1-.326.498c-.067.074-.139.14-.213.198l-.022.016.049.012c.45.121.853.387 1.137.818.567.862.005 2.04-.811 3.047l-.172.205-.61.645-1.452 1.525-.554.586-.757.814c-1.855 2.024-3.437 4-4.794 6.69l-.203.412a31.914 31.914 0 0 0-1.606 4.056l-.174.55c-.23.744-.451 1.534-.665 2.377l-.237.971-.155.673-.152.694-.186.899-.182.934-.143.773c-.87 6.863-.128 14.4 3.012 20.64 4.577 9.097 15.343 8.445 25.478 4.518l.88-.35c.292-.118.584-.24.875-.364l.87-.38.864-.393a63.394 63.394 0 0 0 1.706-.824l.84-.429c.278-.144.554-.29.829-.438l.818-.447c.677-.377 1.341-.761 1.99-1.152l.772-.471.755-.476.372-.24.73-.48.359-.242c2.754 1.421 2.502 4.531 1.44 7.44l-.16.424-.084.211-.175.417-.235.524-.245.512-.167.332-.168.325-.212.393-.211.38-.25.432-.244.406-.234.377-.222.345-.205.31-.186.272-.212.3-.198.265-.077.095-.03.033-.12.115-.458.417-2.09 1.853-6.832 5.99-10.926 9.534c-.123.015-.253.029-.39.04l-.436.033-.478.022-.518.012h-.558l-.595-.012-.63-.027a33.273 33.273 0 0 1-.328-.018l-.679-.049c-.231-.018-.468-.04-.71-.064l-.737-.081c-9.891-1.19-26.652-7.053-30.4-27.59a59.953 59.953 0 0 1-.37-19.41l.103-.685.054-.339.112-.67.12-.66.124-.651.13-.64.135-.632.14-.62.144-.611c.073-.303.147-.602.224-.897l.154-.584.157-.574.16-.563.164-.553.249-.808.168-.524.17-.514.172-.502 1.502-4.638.61-1.872.627-1.907.638-1.92.427-1.277.64-1.892.425-1.236.419-1.209.439-1.244.11-.286.148-.36.094-.215.224-.493.13-.27.143-.284.154-.294.253-.454c.856-1.48 2.102-3.088 3.625-3.48l.07-.095c.753-.992 1.976-2.014 3.893-1.87.319.024.626.079.92.165l.216.07.125-.083c1.485-.957 3.312-.94 4.925.027l.207.132.16.035c.133.03.268.067.408.112zm-.22 4.995c-2.046 2.293-2.237 4.544-1.671 6.824 1.113-2 2.897-3.53 4.202-4.46l.401-.277.245-.162.225-.143.351-.213-.135-.025-.161-.035-.178-.044-.194-.054-.44-.14-.247-.09-.401-.16-.29-.127-.306-.142-.408-.202-.435-.232c-.18-.098-.366-.204-.559-.318z" fill="#FFC8E9"/>
        <path d="M52.794 83.455c-5.042 2.257-10.663 3.978-15.891 4.473-1.743.165-7.223 9.59-3.202 22.274 2.41.236 4.353.21 5.523.068 0 0 7.175-6.248 13.025-11.37l.545-15.445z" fill="#FF9700"/>
        <path d="M9.909 98.487c9.96 11.511 24.742 12.343 29.315 11.784l4.785-4.172c.266-2.073.452-3.628.452-3.628C24.698 111.494 8.78 96.622 8.4 96.308l1.51 2.179z" fill="#FF9FD1"/>
        <path d="M39.224 110.27s2.018-1.756 4.785-4.17l.001-.002c.265-2.072.451-3.626.451-3.626-4.157 1.897-8.147 2.627-11.858 2.888.231 1.491.588 3.232 1.098 4.842 2.41.236 4.353.211 5.523.068zM96.58 42.558c1.055 14.84-11.689 17.183-15.52 24.234.288-10.496-16.234-1.37-21.662 0-7.727 1.95-11.92-5.495-11.37-10.934.865-8.529 10.435-7.225 9.177-15.562-1.027-6.798 4.549-12.652 11.137-11.305 6.625 1.356 5.49-3.28 12.194-4 10.939-1.175 10.685 8.49 10.685 10.597 0 0 4.894.455 5.359 6.97z" fill="#FD5C00"/>
        <path d="M56.932 40.988a17.548 17.548 0 0 1-2.165-2.386l-.28-.377-.295-.379a24.475 24.475 0 0 1-.144-.19l-.278-.38-.266-.38-.254-.379a19.256 19.256 0 0 1-.123-.19l-.234-.378-.222-.378c-.071-.126-.14-.251-.207-.377l-.193-.375c-.062-.125-.12-.25-.178-.374l-.163-.372c-1.678-4.02-.587-7.676 5.855-9.55 11.448-3.333 19.055-2.782 27.942.527.26.098.525.202.792.313l.538.23.545.247c.456.213.918.443 1.383.69l.56.303.562.318.282.164.563.34.564.352c.375.24.75.489 1.123.745l.557.39c.278.2.554.402.829.609l.545.419.27.213.537.434c.177.147.353.295.528.444l.519.453.256.23.504.466.493.474c4.142 4.06 6.973 8.923 5.848 13.221l-.032.101a6.53 6.53 0 0 1-.659 1.632l-.02.033c-1.224 2.206-3.76 3.573-7.842 4.097a22.057 22.057 0 0 0-1.791-7.026l-.217-.452-.354-.717-.265-.516a17.12 17.12 0 0 0-1.248-1.938 24.737 24.737 0 0 0-3.162-3.036c-4.66-3.643-9.887-5.017-14.003-5.501l-.64-.07-.62-.055-.6-.044-.576-.032-.552-.022-.526-.013-.5-.006-.693.003c-2.489.034-5.392.545-7.716 1.891-2.102 1.218-3.73 3.119-4.151 5.968l-.052.917-.374-.33z" fill="#002199"/>
        <path d="M81.542 76.468c-3.004-1.552-12.26-3.303-12.26-3.303l-7.558 5.403c-3.003 2.016-6.138 3.613-9.824 5.26-2.664 2.266-2.683 6.319-9.374 15.292-8.675 11.632 2.535 19.477 0 25.83-4.744 11.884-9.557 15.054-9.58 15.068 9.98 5.236 12.77 6.924 34.065 9.021 3.45-.466 24.432-33.446 24.432-33.446l19.39-30.577c-5.121-11.8-9.886-11.166-15.233-10.236-4.301.748-8.68 4.468-14.058 1.688z" fill="#FF9700"/>
        <path d="M75.543 113.155c-1.469 5.905 4.68 7.686 1.465 15.382-2.878 6.61-8.772 17.257-22.844 19.002 4.495.554 2.416.863 16.777 1.794 8.765-10.069 20.5-33.74 20.5-33.74l4.704-7.642s-5.487-27.67-8.37-14.02c-2.114 13.97-10.767 13.327-12.232 19.224z" fill="#FD5C00"/>
        <path d="m94.635 110.484 12.796-20.832 5.173-4.7c-1.435-15.574-15.05-10.812-18.71-9.743-5.53 4-7.214 26.754.741 35.275z" fill="#FF9700"/>
        <path d="m83.143 41.818-.093.275-.068.232-.051.188-.08.33-.053.249-.05.27-.046.288-.02.151-.036.315-.014.162-.021.336c-.065 1.426.178 3.169 1.334 4.66l.143.177c.686.82.976 1.72.344 3.1a7.405 7.405 0 0 1-.285.549l-.39.672-.147.268c-.4.76-.634 1.53-.1 2.414l1.591-1.47.098-.084.127-.098c.351-.257.928-.558 1.342-.169.48.45.257 1.028.055 1.363l-.074.113a2.187 2.187 0 0 1-.033.047l-.095.119-.277.287-.409.452-.307.358-.341.416-.366.468-.252.34-.255.359c-.085.123-.17.248-.255.377l-.252.393-.246.408c-.243.415-.472.85-.674 1.297-1.045 2.312-1.51 3.8-1.828 5.362l-.107.557-.098.571-.143.904-.26 1.73-.022.241-.018.358-.006.225.002.387.01.286.018.305.029.322c.15 1.422.643 3.21 2.074 4.236 2.754 1.05 5.249.481 7.617-.348l.545-.196 1.875-.703.529-.191.526-.18.388-.124 1.006-.299.54-.155.287-.08.61-.161a28.437 28.437 0 0 1 2.423-.516c-.04.081-.076.158-.122.242-4.766 8.858-16.37 16.522-30.731 18.7-5.21.79-9.528.038-12.867-1.235l-.533-.21a22.75 22.75 0 0 1-.26-.11l-.507-.222c-.332-.15-.652-.306-.961-.465l-.455-.24a21.86 21.86 0 0 1-.22-.121l-.429-.245c-.28-.165-.547-.33-.803-.497l-.375-.249a20.164 20.164 0 0 1-.18-.125l-.348-.248-.33-.246-.311-.243-.293-.239-.275-.234-.257-.229-.238-.221-.219-.214-.2-.205-.183-.195-.163-.184-.144-.173-.125-.16-.106-.146-.087-.132a2.37 2.37 0 0 1-.036-.06l-.058-.108a1.05 1.05 0 0 1-.022-.047l-.03-.082c-.018-.073-.009-.118.031-.131a61.48 61.48 0 0 0 4.82-1.828l.034-.031c3.44-1.537 6.4-3.03 9.221-4.862l.404-.267-.038-.44a24.08 24.08 0 0 1-.016-.224l-.027-.463-.02-.482a31.603 31.603 0 0 1-.006-.25l-.01-.52v-.552l.005-.586.012-.624.02-.668.026-.716.033-.766c.065-1.459-.268-2.904-1.145-4.07-2.629-3.498-3.313-8.837-.206-17.709l.171-.473.182-.472.19-.47c.031-.08.064-.157.097-.235l.2-.464.203-.457.312-.67.313-.645.207-.414.404-.779.379-.704.42-.753.447-.767.233-.385c3.083 1.74 6.158 1.138 9.09.183l.65-.217.965-.337.636-.225.944-.326c2.497-.838 4.844-1.371 6.946-.2z" fill="#FFC8E9"/>
        <path d="M61.55 78.68c-2.748 1.845-5.436 3.227-8.726 4.73l-.03.045s4.364-1.448 10.582.635c0 0-1.826-1.5-1.826-5.41zM77.545 67.519c-.537-2.178-2.088 3.332-10.992 3.397-3.776.027-6.215-2.806-7.48-4.819.349.822.78 1.567 1.287 2.24a5.816 5.816 0 0 1 1.17 3.664s1.321 4.242 4.938 4.467c5.531.344 11.68-6.514 11.077-8.95" fill="#FF9FD1"/>
        <path d="M72.587 59.341a.433.433 0 0 1 .235.566c-.131.318-.423.763-.922 1.203-.926.815-2.216 1.255-3.9 1.131a.433.433 0 0 1 .063-.864c1.45.107 2.512-.255 3.264-.917.229-.201.41-.416.55-.63l.096-.157.048-.097a.433.433 0 0 1 .566-.235zm-4.469-7.047a.27.27 0 0 1 .17.344c-.655 1.925-1.574 3.799-2.771 5.16l-.147.162.019.005c.358.07.975-.032 1.874-.34l.162-.056a.27.27 0 1 1 .181.51c-1.139.406-1.918.532-2.42.394a.515.515 0 0 1-.238-.854c1.217-1.304 2.164-3.206 2.827-5.156a.27.27 0 0 1 .343-.169zm7.736 1.43.082.126.156-.017a4.03 4.03 0 0 1 .35-.017l.173.003c.181.01.347.034.497.079a.361.361 0 0 1-.208.692 1.397 1.397 0 0 0-.325-.049 3.306 3.306 0 0 0-.57.028l-.19.03a.361.361 0 0 1-.39-.184c-.744-1.38-2.034-1.45-2.744-.694a.361.361 0 1 1-.526-.496c.961-1.02 2.664-1.002 3.695.5zm-11.894-3.68a1.116 1.116 0 1 1 0 2.23 1.116 1.116 0 0 1 0-2.23zm10.288-2.86.044.066c.053.09.239.29.598.513.859.535 2.138.801 3.947.61a.826.826 0 0 1 .173 1.643c-2.163.229-3.812-.114-4.994-.85-.598-.373-.966-.77-1.147-1.077a.826.826 0 0 1 1.38-.906zm-7.755-1.435c.425.186.74.378.93.52a.826.826 0 0 1-.904 1.379l-.28-.18-.143-.079-.172-.085a4.918 4.918 0 0 0-.097-.043c-1.479-.652-3.035-.515-4.571.997a.826.826 0 1 1-1.16-1.177c2.069-2.036 4.346-2.236 6.397-1.332z" fill="#002199"/>
        <path d="M85.862 87.978c2.309-2.496 6.805-2.444 9.124 0 2.528 2.665 4.254 6.263 5.238 9.744 1.719 6.087 1.132 12.287-.747 18.161l.531.163-1.054 24.64-4.03-1.064c-2.19-.67-3.847-1.626-5.082-2.603l-.25-.202c-.08-.067-.16-.135-.237-.202l-.227-.202a12.812 12.812 0 0 1-.108-.1l-.21-.2a12.524 12.524 0 0 1-.1-.1l-.193-.197a12.265 12.265 0 0 1-.092-.098l-.177-.194-.166-.19-.157-.186-.146-.182-.137-.176-.127-.172-.06-.084-.114-.162-.104-.156-.096-.148-.128-.208-.142-.248-.086-.16-.09-.178-.06-.132-.048-.11c-2.179-3.154-2.651-6.745-2.512-9.742l.022-.396.013-.195.032-.385.019-.189.04-.372.022-.182.048-.357.051-.348.055-.337.058-.326.03-.158.062-.308.063-.296.063-.282.097-.399.063-.247.093-.343.117-.402.128-.408.13-.377.048-.131.148-.342.134-.318.182-.447.64-1.623.215-.528.163-.392.184-.43.1-.232a29.962 29.962 0 0 0 1.115-4.36l.013-.08.025-.2.024-.235.032-.385.018-.254.011-.243.007-.265.002-.284-.002-.299-.006-.308-.01-.315-.02-.476-.015-.313-.046-.739-.048-.626-.028-.296-.024-.219-.014-.096a21.27 21.27 0 0 0-.417-1.66l-.044-.142-.103-.301-.09-.249-.16-.424-.118-.304-.126-.313-.13-.312-.131-.303c-.22-.493-.435-.914-.592-1.091-.121-.136-.23-.283-.356-.416-2.473-2.607-2.423-6.435 0-9.054z" fill="#FFC8E9"/>
        <path d="M139.004 61.213c12.907 0 10.303 9.335 10.303 9.335l-13.278 69.65-.632 3.304s-1.381 7.235-9.094 7.12c-7.712-.114-32.874.002-32.874.002s-5.432-.066-5.552-7.302c23.324 5.72 38.181 3.45 44.57-6.81 2.805-13.524 6.106-29.043 12.903-67.657-.01-1.683-2.126-4.23-6.346-7.642z" fill="#0B7EFF"/>
        <path d="m88.329 139.402 14.086-73.956s.504-4.019 5.05-3.918c3.335.073 19.736-.006 28.23-.054 3.079-.017 5.119-.03 5.119-.03s6.572-.278 5.013 7.669c-1.559 7.946-13.715 70.814-13.715 70.814s-.762 7.13-7.778 6.98c-7.016-.149-32.554.003-32.554.003s-5.578.327-3.451-7.508" fill="#FFF"/>
        <path d="m98.81 133.76 22.422.04c2.196.004 3.977 1.756 3.98 3.913 0 2.158-1.779 3.903-3.975 3.899l-22.421-.041c-2.197-.004-3.979-1.756-3.98-3.913-.001-2.157 1.778-3.903 3.974-3.898zm31.631-69.828c.301 0 .547.37.547.823 0 .452-.246.822-.547.822h-10.973c-.301 0-.547-.37-.547-.822 0-.453.246-.823.547-.823h10.973zm-13.013-.076c.458 0 .83.368.83.822a.826.826 0 0 1-.83.823.826.826 0 0 1-.83-.823c0-.454.372-.822.83-.822z" fill="#0B7EFF"/>
        <path d="m141.052 60.885-9.061.051-9.175.042-7.294.02-5.082-.003-1.984-.013-.777-.011-.087-.002c-2.231-.049-3.813.8-4.798 2.235-.571.832-.83 1.659-.903 2.24l-14.08 73.832c-.9 3.309-.55 5.615.805 6.989.91.922 2.068 1.262 3.144 1.274l6.821-.035 7.712-.026 5.87-.009 4.879.005 4.581.023 1.734.019 1.077.019c3.34.07 5.674-1.375 7.117-3.799a10.184 10.184 0 0 0 1.148-2.86l.061-.272.047-.24c.014-.075.025-.143.034-.206l.022-.17 13.707-70.677c.679-3.456-.042-5.823-1.816-7.197-1.15-.89-2.501-1.217-3.702-1.23zm-.007 1.283a5.4 5.4 0 0 1 1.188.156c.643.156 1.235.418 1.735.805 1.331 1.031 1.906 2.841 1.382 5.726l-7.094 36.553-6.661 34.39-.02.143-.027.168c-.04.22-.094.467-.166.734a8.917 8.917 0 0 1-.933 2.237c-1.189 1.995-3.042 3.174-5.781 3.174l-2.406-.035-3.795-.024-4.572-.01-4.826.004-5.633.014-8.843.036-2.826.016c-.763-.008-1.61-.257-2.238-.892-.992-1.005-1.27-2.844-.468-5.799l14.097-73.919.009-.057.025-.135a4.392 4.392 0 0 1 .66-1.523c.72-1.048 1.842-1.673 3.528-1.68l2.297.025 2.524.007 3.713-.002 6.907-.019 10.127-.046 8.097-.047z" fill="#0B7EFF"/>
        <path d="M126.693 92.556a3.017 3.017 0 0 1 4.062 4.46l-.1.09-14.488 12.619a3.017 3.017 0 0 1-4.094-.12l-.096-.1-6.027-6.476a3.017 3.017 0 0 1 4.321-4.21l.097.1 4.037 4.338 12.288-10.701z" fill="#FF7800"/>
        <path d="M140.636 80.343c1.601.226 3.194.748 4.697 1.34 4.167 1.64 7.906 3.882 11.143 7.071 2.456 2.42 2.197 6.386 0 8.84-1.105 1.234-2.642 1.803-4.193 1.797.287.251.568.509.846.771 2.504 2.37 2.225 6.286 0 8.692-1.34 1.449-3.297 1.963-5.16 1.7a29.01 29.01 0 0 1 2.378 2.224c2.384 2.494 2.32 6.185 0 8.692-1.185 1.281-2.963 1.86-4.703 1.767.33.294.65.595.964.9 1.706 1.666 2.13 4.018 1.485 6.117-.84 4.11-4.453 5.948-7.431 6.77l-.453.118-.44.104-.214.046-.416.083-.585.101-.362.054-.49.062-.423.043-.343.027-.467.024.318-1.474c.085-.703.217-1.46.37-2.263l.292-1.496c-.154-.145-.31-.285-.467-.423l-.77-.666-.505-.347-.494-.33a28.502 28.502 0 0 0-3.074-1.717l-.66-.305-.49-.187a20.322 20.322 0 0 0-.611-.211l-.31-.095c-3.329-.964-5.08-4.271-4.325-7.56.735-3.203 4.51-5.193 7.618-4.293l.285.084a17.874 17.874 0 0 0-1.878-.55l-.48-.1c-3.407-.624-5.019-4.544-4.327-7.56.69-3.004 3.587-4.488 6.43-4.415l.285.013c.203.013.405.033.605.062l.398.067.685.092c-1.728-.229-3.082-.618-4.38-1.8-1.215-1.107-1.741-2.756-1.813-4.345-.07-1.531.74-3.28 1.814-4.346.982-.974 2.928-1.993 4.38-1.8l.336.046c-2.18-1.392-3.095-4.666-2.564-7.058.331-1.49 1.537-2.977 2.802-3.736 1.546-.928 2.998-.87 4.697-.63z" fill="#FFC8E9"/>
        <path d="m132.915 115.96.054.01c5.52 1.551 9.792 3.85 12.81 6.902a.411.411 0 0 1-.586.578c-2.908-2.942-7.055-5.173-12.446-6.687a.411.411 0 0 1 .168-.804zm1.395-12.172.055.008c5.615 1.162 10.037 3.157 13.26 5.991a.411.411 0 0 1-.544.618c-3.106-2.732-7.399-4.669-12.882-5.803a.411.411 0 0 1 .111-.814zm2.685-11.953.055.006c6.073 1.143 10.972 3.344 14.691 6.61a.411.411 0 0 1-.542.618c-3.602-3.162-8.366-5.302-14.3-6.419a.411.411 0 0 1 .096-.815zM24.732 39.13a.156.156 0 0 1-.052.215l-.302.185-.603.388-.468.315-.17.117-.352.25-.367.269-.373.284-.187.148-.372.304c-.552.463-1.072.958-1.46 1.443a.15.15 0 0 1-.216.02.163.163 0 0 1-.043-.059.159.159 0 0 1 .02-.163 10.43 10.43 0 0 1 1.29-1.309l.368-.311c.124-.102.25-.202.374-.3l.374-.287.367-.27.525-.37.322-.218.554-.362.453-.283.107-.064a.154.154 0 0 1 .211.059zm-3.557-12.1c.65.297 1.213.752 1.674 1.35.415.54.738 1.207.965 1.983a.132.132 0 0 1 .064.027 27.67 27.67 0 0 0 2.444 1.638c.074.044.101.14.06.215a.15.15 0 0 1-.208.056 27.498 27.498 0 0 1-2.243-1.488c.32 1.355.374 3.003.15 4.854l-.06.45c-.171 1.21-1.203 1.934-2.509 1.762a1.931 1.931 0 0 1-1.324-.793c-.1.422-.324.8-.647 1.09a2.09 2.09 0 0 1-1.572.535c-.863-.065-1.491-.504-1.82-1.242a3.204 3.204 0 0 1-.253-1.133c-.032-.37-.047-.743-.054-1.09l-.013-1.148-.01-.259a.334.334 0 0 0-.319-.325c-.152-.011-.346.072-.391.346a.15.15 0 0 1-.177.124.162.162 0 0 1-.126-.184c.074-.443.419-.621.709-.599a.654.654 0 0 1 .61.624l.006.127.01.468.008.825c.004.228.012.468.027.71l.026.366c.068 1.259.701 1.994 1.782 2.077.5.038.98-.125 1.35-.46.372-.334.59-.8.614-1.31l.01-.215.013-.46.003-.494c0-.254-.006-.519-.018-.79l-.032-.547c-.13-1.753-.548-3.636-1.65-4.602a2.722 2.722 0 0 0-2.345-.651.158.158 0 0 1-.182-.126.153.153 0 0 1 .119-.183c.942-.18 1.868.077 2.604.724 1.529 1.34 1.82 4.264 1.81 6.383l-.007.491c-.004.158-.01.31-.017.454l.05.097c.163.296.529.764 1.238.858 1.096.145 1.94-.396 2.148-1.357l.029-.166c.466-3.28.071-5.933-1.111-7.47a4.103 4.103 0 0 0-1.554-1.255.162.162 0 0 1-.082-.208.149.149 0 0 1 .201-.079zm5.243.16.47.358.43.315.393.276.36.241.328.208.301.179.141.08.265.14.244.118.225.1.211.084.199.071.371.118.46.133.387.107.265.082c.672.224 1.384.607 1.622 1.569a.153.153 0 0 1-.11.188.158.158 0 0 1-.187-.119c-.21-.85-.872-1.172-1.512-1.371l-1.1-.317-.29-.093-.205-.074-.217-.086-.233-.102a7.478 7.478 0 0 1-.122-.058l-.261-.132-.283-.156-.309-.183-.336-.213-.368-.246-.197-.136-.42-.301-.458-.343c-.08-.06-.162-.123-.245-.188a.162.162 0 0 1-.033-.22.15.15 0 0 1 .214-.028z" fill="#003CE5"/>
        <path d="M44.983 25.713a.685.685 0 0 1 .042.105l.278.901a.684.684 0 0 1-.433.85l-5.096 1.728a.68.68 0 0 1-.863-.428l-.06-.208a.684.684 0 0 1 .35-.796l4.867-2.455a.68.68 0 0 1 .915.303zm-4.342-3.906c.03.018.059.039.085.062l.542.474c.203.185.23.495.062.712l-3.49 3.433c-.224.197-.46.233-.618.121l-.064-.053-.096-.09c-.176-.17-.247-.364-.082-.639l2.942-3.837a.524.524 0 0 1 .72-.183zM35.8 18.675c.035.006.07.015.103.027l.835.294c.328.115.485.48.356.822l-1.89 4.989c-.132.349-.513.544-.85.435l-.19-.07a.614.614 0 0 1-.368-.728l1.214-5.222c.084-.36.437-.605.79-.547z" fill="#6B97FF"/>
    </g>
</svg>
