<?xml version="1.0" encoding="UTF-8"?>
<svg width="99px" height="110px" viewBox="0 0 99 110" version="1.1" xmlns="http://www.w3.org/2000/svg" xmlns:xlink="http://www.w3.org/1999/xlink">
    <title>spot</title>
    <g id="Desktop" stroke="none" stroke-width="1" fill="none" fill-rule="evenodd">
        <g id="2.7.0.0.DAI_evaluacion_desktop" transform="translate(-551.000000, -124.000000)">
            <g id="Group" transform="translate(540.000000, 120.000000)">
                <path d="M32.9029112,31.9311393 C24.2629463,43.3916121 11.5236441,43.4289176 11.0158817,62.4268538 L11.0158817,62.4268538 C10.4980267,81.7772752 22.7330467,84.4311987 34.7428973,91.4798549 L34.7428973,91.4798549 C48.6762589,99.6577883 45.1306228,110.023849 63.487677,112.617456 L63.487677,112.617456 C90.0719436,116.373113 111.829857,91.9948109 109.878157,60.6114335 L109.878157,60.6114335 C107.905923,28.9076468 83.4915659,15 62.6096205,15 L62.6096205,15 C41.7273271,15 37.1727787,26.268018 32.9029112,31.9311393 L32.9029112,31.9311393 Z" id="Clip-2" fill="#DCEDFF"></path>
                <path d="M63.6946186,34.0679043 L64.2353911,34.0399553 L64.2353911,34.0399553 L64.7800138,34.0188179 L64.7800138,34.0188179 L65.3284042,34.0052564 C65.4201119,34.0036699 65.5119733,34.0024309 65.6039864,34.0007903 L66.1578733,34.0007903 C66.2504868,34.0007903 66.3432487,34.0024691 66.4361573,34.0039173 L66.9953548,34.0176679 C67.0888431,34.0208245 67.1824746,34.0244241 67.2762476,34.0284826 L67.8405699,34.0584683 C67.934902,34.0644262 68.0293722,34.0708749 68.1239787,34.0778303 L68.6932398,34.1257702 C69.1689645,34.1709993 69.6480114,34.2296916 70.1301653,34.303837 L70.7102277,34.4003562 C77.979306,35.7027494 85.9281169,40.6611763 93.8305878,55.9915278 C97.5495959,63.206317 99.2136526,70.8215171 99.7710859,77.796984 L99.8448718,78.8130965 C99.9440313,80.3300529 99.9920965,81.8137384 99.9990983,83.2531512 L99.9977927,84.20608 C99.9965979,84.3637681 99.9949236,84.5208794 99.9927837,84.6773989 L99.9744661,85.6092927 C99.9705185,85.7633844 99.9661327,85.9168541 99.9613226,86.0696866 L99.9274789,86.9789154 L99.9274789,86.9789154 L99.8841101,87.8721288 C99.8761249,88.0196228 99.8677704,88.1664194 99.8590602,88.3125033 L99.8026422,89.1803352 L99.8026422,89.1803352 L99.7383502,90.0303406 L99.7383502,90.0303406 L99.6668447,90.8617951 L99.6668447,90.8617951 L99.5887861,91.6739742 L99.5887861,91.6739742 L99.5048351,92.4661537 L99.5048351,92.4661537 L99.4156519,93.2376089 L99.4156519,93.2376089 L99.2735117,94.3543495 L99.2735117,94.3543495 L99.1741377,95.0708252 L99.1741377,95.0708252 L99.0198074,96.1017006 L99.0198074,96.1017006 L98.861135,97.0777972 L98.861135,97.0777972 L98.7540419,97.6968882 L98.7540419,97.6968882 L98.6466702,98.289822 L98.6466702,98.289822 C90.79952,108.485464 81.058246,112.155895 72.5000894,112.899071 L71.7013223,112.960277 C70.3761338,113.048966 69.0821777,113.067724 67.8311928,113.03209 L67.0858523,113.00422 C66.9625197,112.998512 66.8396402,112.992281 66.7172256,112.985541 L65.9884112,112.939108 L65.9884112,112.939108 L65.2713186,112.881123 C65.034304,112.859943 64.7993369,112.836947 64.5665112,112.812245 L63.8745524,112.733132 L63.8745524,112.733132 L63.1960058,112.644443 L63.1960058,112.644443 L62.5314347,112.546838 L62.5314347,112.546838 L61.8814027,112.440975 C61.7743069,112.422679 61.6678404,112.404067 61.5620149,112.385152 L60.9348479,112.268137 L60.9348479,112.268137 L60.3236286,112.144511 L60.3236286,112.144511 L59.7289204,112.014933 L59.7289204,112.014933 C62.5245987,106.614166 63.6854188,101.636922 63.9943845,97.4083173 L64.0391514,96.690808 C64.0513896,96.4541232 64.0609923,96.2199436 64.0681056,95.9883299 L64.0821236,95.3012471 L64.0821236,95.3012471 L64.0820819,94.6299234 C64.0809521,94.5193696 64.0792729,94.4094876 64.0770627,94.3002849 L64.0575753,93.6532825 C64.0447915,93.3339182 64.0275572,93.0208048 64.0063654,92.7141471 L63.9588514,92.1095 C63.9501017,92.0101802 63.9409487,91.911593 63.9314109,91.8137458 L63.8697107,91.2356037 L63.8697107,91.2356037 L63.7996488,90.6755867 L63.7996488,90.6755867 L63.7221018,90.1340587 L63.7221018,90.1340587 L63.6379463,89.6113838 L63.6379463,89.6113838 L63.5480588,89.1079258 L63.5480588,89.1079258 L63.4533161,88.6240488 L63.4533161,88.6240488 L63.3040159,87.9357439 L63.3040159,87.9357439 L63.1487221,87.2935435 L63.1487221,87.2935435 L63.0433242,86.8916302 L63.0433242,86.8916302 L62.9374539,86.5111178 L62.9374539,86.5111178 L62.7796805,85.981272 L62.7796805,85.981272 L62.6764646,85.6558542 L62.6764646,85.6558542 L62.4786967,85.073407 L62.4786967,85.073407 L62.2983248,84.5845709 L62.2983248,84.5845709 L62.1080065,84.1096023 L62.1080065,84.1096023 L61.9170129,83.6775474 L61.9170129,83.6775474 L61.888763,83.618949 L50.6513199,65.5692389 C50.0437653,67.0698496 48.6912141,68.2219302 46.9834298,68.4892681 C44.1651487,68.9302734 43.1124975,70.4087008 42.7196869,71.4204863 L42.649595,71.6161759 L42.649595,71.6161759 L42.595133,71.7967478 L42.595133,71.7967478 L42.5543351,71.9595281 L42.5543351,71.9595281 L42.514458,72.1644903 L42.514458,72.1644903 L42.4907648,72.3505464 L42.4907648,72.3505464 L42.4865015,72.41297 C42.387094,74.9839168 40.2836975,77 37.7486363,77 L37.5599305,76.9962715 L37.5599305,76.9962715 C34.9416365,76.8935692 32.9012543,74.6747931 33.0036946,72.0408014 L33.0118444,71.8716054 L33.0118444,71.8716054 L33.0385001,71.5195226 L33.0385001,71.5195226 L33.0794627,71.150399 C33.0955679,71.0246794 33.1141573,70.8963625 33.1353306,70.765691 L33.2067022,70.3668551 C33.9999309,66.3127122 37.2084658,60.357867 45.525003,59.0565882 C45.8767284,59.0019713 46.2255315,58.9876781 46.5667161,59.0103033 L44.8168548,56.199674 C42.8594241,56.6017153 41.0971665,58.2889894 40.0618191,59.5568299 L39.7978736,59.8909247 L39.7978736,59.8909247 L39.5723704,60.1965366 C39.503876,60.2928063 39.4421881,60.3830481 39.3877063,60.4659813 L39.311438,60.5847395 C38.3647743,62.1442727 36.7201739,63 35.0319748,63 C34.1342703,63 33.2251301,62.758438 32.4021152,62.2511936 C30.096506,60.8315816 29.3345902,57.8289839 30.6260533,55.4678909 L30.7714945,55.2185456 L30.7714945,55.2185456 L30.9603834,54.9213654 L30.9603834,54.9213654 L31.1749541,54.600784 L31.1749541,54.600784 L31.4512927,54.2074669 L31.4512927,54.2074669 L31.6695134,53.9097373 L31.6695134,53.9097373 L31.9147057,53.5870164 L31.9147057,53.5870164 L32.1866774,53.2422387 C32.2342269,53.1831007 32.2828842,53.123166 32.3326454,53.0624956 L32.6444254,52.6901345 L32.6444254,52.6901345 L32.982504,52.3030524 C33.2166131,52.0407427 33.4681264,51.7705753 33.7367874,51.4964625 L34.1526076,51.0828235 C35.5098945,49.7666935 37.251184,48.4056843 39.348995,47.4191002 L39,46.8588938 L40.594213,43.4164538 L41.4379942,42.9046993 L41.4379942,42.9046993 L42.337431,42.3759631 L42.337431,42.3759631 L43.5097939,41.70623 L43.5097939,41.70623 L44.4255089,41.196971 L44.4255089,41.196971 L45.4362957,40.6483887 L45.4362957,40.6483887 L46.5316627,40.06982 L46.5316627,40.06982 L47.4023826,39.6218314 L47.4023826,39.6218314 L48.0038295,39.3186646 L48.0038295,39.3186646 L49.2511428,38.7067639 L49.2511428,38.7067639 L50.2203309,38.2475629 L50.2203309,38.2475629 L50.8800466,37.9434859 L50.8800466,37.9434859 L51.5491044,37.6424163 L51.5491044,37.6424163 L52.2261929,37.345521 L52.2261929,37.345521 L52.9100007,37.0539672 L52.9100007,37.0539672 L53.5992164,36.7689221 L53.5992164,36.7689221 L54.2925285,36.4915526 L54.2925285,36.4915526 L54.9886256,36.2230259 L54.9886256,36.2230259 L55.6861962,35.9645091 L55.6861962,35.9645091 L56.383929,35.7171693 L56.383929,35.7171693 L57.0805124,35.4821736 C57.3123696,35.4060288 57.5438167,35.3321358 57.7746351,35.2606891 L58.4649856,35.0538829 L58.4649856,35.0538829 L59.1502524,34.8629222 C60.7422576,34.436741 62.2820364,34.1494953 63.6946186,34.0679043 Z" id="Path" fill="#FFC8E9"></path>
                <path d="M55.6569182,69.4062723 L56.0386735,69.2068203 L56.6438905,68.8998159 L56.6438905,68.8998159 L57.2576073,68.6023544 C57.326215,68.5699785 57.3949525,68.5378518 57.4638106,68.5059987 L57.8783321,68.3183553 L57.8783321,68.3183553 L58.2953051,68.1384373 C58.3649803,68.1091592 58.4347393,68.0802515 58.5045728,68.0517381 L58.9243944,67.8855855 C58.9944891,67.8587468 59.06464,67.832351 59.1348377,67.8064223 L59.5565132,67.656648 C63.2849821,66.3865685 67.0934353,66.5643597 69.6108216,71.7919779 L69.7933147,72.1744748 L69.7933147,72.1744748 L70.1426507,72.9276684 L70.1426507,72.9276684 L70.4716213,73.664619 C70.5247861,73.7860565 70.5771273,73.9067918 70.6286576,74.0268121 L70.9282078,74.738252 L70.9282078,74.738252 L71.2088963,75.4319206 C71.2541393,75.5460171 71.2986215,75.6593477 71.3423553,75.7718996 L71.5958791,76.4377649 C71.6774606,76.6565374 71.7561491,76.8720932 71.8320448,77.0843306 L72.0514541,77.7109853 C72.0866594,77.8137346 72.1211915,77.9156287 72.1550631,78.016655 L72.3504655,78.612297 L72.3504655,78.612297 L72.5306152,79.1864997 L72.5306152,79.1864997 L72.6961137,79.7386518 L72.6961137,79.7386518 L72.9182062,80.5241976 L72.9182062,80.5241976 L73.1107169,81.2566908 L73.1107169,81.2566908 L73.2236256,81.714527 L73.2236256,81.714527 L73.3713447,82.354014 L73.3713447,82.354014 L73.4562719,82.7479357 L73.4562719,82.7479357 L73.5310592,83.1152217 L73.5310592,83.1152217 L73.65262,83.7674415 L73.65262,83.7674415 L73.758248,84.4220016 L73.758248,84.4220016 L73.8470951,85.1213227 L73.8470951,85.1213227 L73.8587991,85.2368429 L73.8587991,85.2368429 L73.897394,85.4694792 L73.897394,85.4694792 L73.9534845,85.9096953 L73.9534845,85.9096953 L73.990301,86.3001729 L73.990301,86.3001729 L74.021134,86.7688859 L74.021134,86.7688859 L74.0404342,87.3108727 L74.0404342,87.3108727 L74.0440027,87.762464 L74.0440027,87.762464 L74.0356214,88.2503876 L74.0356214,88.2503876 L74.022239,88.594821 L74.022239,88.594821 L74.0018114,88.9538516 L74.0018114,88.9538516 L73.973645,89.3268591 L73.973645,89.3268591 L73.9370461,89.7132234 L73.9370461,89.7132234 L73.891321,90.1123243 L73.891321,90.1123243 L73.835776,90.5235415 C73.8256617,90.5930529 73.8151093,90.6630434 73.8041043,90.7334999 L73.732529,91.1617287 L73.732529,91.1617287 L73.6493997,91.6005234 L73.6493997,91.6005234 L73.5540228,92.0492637 L73.5540228,92.0492637 L73.4457045,92.5073293 C73.4265345,92.5844163 73.4067964,92.6618659 73.3864757,92.7396654 L73.2574448,93.2105562 C73.234736,93.2897032 73.2114157,93.3691741 73.1874694,93.448956 L73.0361652,93.9312766 L73.0361652,93.9312766 L72.8691451,94.4204417 C72.635666,95.0769493 72.3584278,95.7500552 72.0300316,96.4331437 L71.7740266,96.9472285 C70.0461427,100.299602 67.0584939,103.849915 61.9538427,106.831703 C63.5338973,102.462825 64.0888348,98.4971803 64.1050511,95.1093973 L64.1012555,94.4395972 C64.0994738,94.3292653 64.0971295,94.2195883 64.0942407,94.1105728 L64.0705176,93.4644693 C64.0655228,93.3581256 64.0600194,93.2524563 64.0540255,93.1474678 L64.0123205,92.5257593 C64.0044367,92.4235203 63.9960984,92.321975 63.9873238,92.22113 L63.9295824,91.6245151 C63.9191339,91.526497 63.9082851,91.4291922 63.8970539,91.3326071 L63.8252217,90.7617842 L63.8252217,90.7617842 L63.7450766,90.2085442 L63.7450766,90.2085442 L63.6574832,89.6731973 C63.6423116,89.5854811 63.6268658,89.4985235 63.6111636,89.4123308 L63.5140191,88.9044058 L63.5140191,88.9044058 L63.4115881,88.4151502 L63.4115881,88.4151502 L63.3047354,87.9448743 L63.3047354,87.9448743 L63.1943255,87.4938887 L63.1943255,87.4938887 L63.0812232,87.0625037 L63.0812232,87.0625037 L62.9662933,86.6510299 L62.9662933,86.6510299 L62.8504003,86.2597776 L62.8504003,86.2597776 L62.6766468,85.7114938 L62.6766468,85.7114938 L62.5621295,85.3721536 L62.5621295,85.3721536 L62.34015,84.7577083 L62.34015,84.7577083 L62.133342,84.230979 L62.133342,84.230979 L61.9923538,83.8949898 L61.9923538,83.8949898 L61.7280946,83.3142124 L61.7280946,83.3142124 L61.5689926,83 L54,70.3047912 L55.0927939,69.7075195 C55.2790118,69.6070099 55.4671263,69.5064022 55.6569182,69.4062723 Z M41.0542365,76 L50.5971508,76.9307783 L50.5919608,77.1766237 L50.5919608,77.1766237 L50.5934968,77.4750461 L50.5934968,77.4750461 L50.602828,77.7570052 L50.602828,77.7570052 L50.6222921,78.0836429 C50.7241606,79.4733611 51.1366547,81.8239543 52.6690161,83.7985191 L52.8664525,84.0432845 C54.5760885,86.0823448 54.3231495,89.1325236 52.3016803,90.8570901 C51.2735838,91.7336216 49.9860801,92.0985856 48.744194,91.9773887 C47.5438403,91.8603119 46.3856998,91.2890042 45.5455203,90.2871557 C43.0692854,87.3336254 41.9197116,84.0817278 41.401505,81.4202477 L41.3089041,80.9127337 L41.3089041,80.9127337 L41.2309507,80.4213968 L41.2309507,80.4213968 L41.1665245,79.9476691 L41.1665245,79.9476691 L41.1145052,79.4929825 L41.1145052,79.4929825 L41.0737726,79.0587692 L41.0737726,79.0587692 L41.0432063,78.6464611 L41.0432063,78.6464611 L41.0216861,78.2574902 L41.0216861,78.2574902 L41.0039168,77.7209239 L41.0039168,77.7209239 L41.0001995,77.2449216 L41.0001995,77.2449216 L41.0067536,76.8343164 L41.0067536,76.8343164 L41.0249349,76.3969253 L41.0249349,76.3969253 L41.0542365,76 L41.0542365,76 Z M47.9853828,61.5267597 L48.7487663,61 L48.7487663,61 L51,63.1817508 L51,63.1817508 C50.7522792,65.3620565 49.2534972,67.2026901 47.1980979,67.6543385 L46.9835133,67.696063 C44.0598326,68.1912804 43.0176232,69.8831279 42.6465026,70.9895427 L42.5788976,71.2095181 L42.5788976,71.2095181 L42.5280617,71.4092796 L42.5280617,71.4092796 L42.4916125,71.5853197 L42.4916125,71.5853197 L42.4687169,71.7234546 L42.4419088,71.9854562 L42.4419088,71.9854562 C42.3415137,74.7960167 40.2172203,77 37.6569738,77 L37.4663931,76.995924 L37.4663931,76.995924 C35.2774385,76.902918 33.4927871,75.2232515 33,73.0148217 L33.2109978,73.126372 L33.2109978,73.126372 L33.5049988,73.263372 L33.5049988,73.263372 L33.6795659,73.3357668 L33.6795659,73.3357668 L33.8706123,73.4077455 L33.8706123,73.4077455 L34.0767141,73.4770486 L34.0767141,73.4770486 L34.2964475,73.5414166 C34.3341266,73.5516078 34.3723143,73.5614992 34.410981,73.5710438 L34.6484921,73.6237724 C34.6889561,73.6317413 34.7298398,73.6392692 34.7711136,73.646309 L35.0231986,73.6823145 C36.3473658,73.8341911 37.9893113,73.4265586 39.065331,71.0570617 L39.1676656,70.8215841 C40.2090259,68.3183148 42.7146181,65.7913136 44.9023069,63.9274987 L45.4646251,63.4567817 L45.4646251,63.4567817 L46.0054898,63.0188625 L46.0054898,63.0188625 L46.5178703,62.6164511 L46.5178703,62.6164511 L46.9947358,62.2522574 L46.9947358,62.2522574 L47.4290557,61.9289913 L47.4290557,61.9289913 L47.9853828,61.5267597 L47.9853828,61.5267597 Z" id="Shape" fill="#FF9FD1"></path>
                <path d="M71.6335886,83 L44.3660704,83 C40.8499804,83 38,80.1650488 38,76.6679192 L38,70 L78,70 L78,76.6679192 C78,80.1650488 75.1500196,83 71.6335886,83" id="Fill-16" fill="#003CE5"></path>
                <path d="M44.7576602,79 C41.5828338,79 39,76.4051359 39,73.2159463 L39,9.78370837 C39,6.59451881 41.5828338,5 44.7576602,5 L70.9910889,5 C74.166259,5 76.7490928,6.59451881 76.7490928,9.78370837 L76.7490928,73.2159463 C76.7490928,76.4051359 74.166259,79 70.9910889,79 L44.7576602,79 Z" id="Fill-18" fill="#FFFFFF"></path>
                <path d="M64.4008567,29.8257265 C65.0419571,28.9356132 66.2835202,28.7335547 67.1739655,29.3744161 C68.0273089,29.988575 68.2485052,31.1539948 67.7012012,32.0334676 L67.6254443,32.146491 L58.962481,44.1742765 C58.3450673,45.0315028 57.1715963,45.2499146 56.2912718,44.6943388 L56.1781791,44.6174719 L50.8148301,40.2668641 C49.9288682,39.6198233 49.7353802,38.3773468 50.3826623,37.4917153 C51.0018018,36.6445895 52.1659287,36.4307952 53.0413398,36.9800662 L53.1588462,37.0597087 L56.9066282,40.2300362 L64.4008567,29.8257265 Z" id="Path" fill="#FF7800" transform="translate(59.000000, 37.000000) rotate(4.000000) translate(-59.000000, -37.000000) "></path>
                <path d="M71.6336429,3.99993032 L44.3663571,3.99993032 C40.8502972,3.99993032 38,6.91147662 38,10.5030921 L38,74.4968382 C38,78.0884537 40.8502972,81 44.3663571,81 L71.6336429,81 C75.1500439,81 78,78.0884537 78,74.4968382 L78,10.5030921 C78,6.91147662 75.1500439,3.99993032 71.6336429,3.99993032 M71.6336429,5.33533261 C74.4232301,5.33533261 76.6926901,7.65356034 76.6926901,10.5030921 L76.6926901,74.4968382 C76.6926901,77.34637 74.4232301,79.6645977 71.6336429,79.6645977 L44.3663571,79.6645977 C41.5767699,79.6645977 39.307651,77.34637 39.307651,74.4968382 L39.307651,10.5030921 C39.307651,7.65356034 41.5767699,5.33533261 44.3663571,5.33533261 L71.6336429,5.33533261" id="Fill-20" fill="#003CE5"></path>
                <path d="M62.4713404,5 L60.0856912,5 L58.5170217,5 L57.4829783,5 L55.913967,5 L53.5286596,5 L47,5 C49.2622477,5 49.5685297,6.81733512 49.5685297,8.50020374 C49.5685297,12 51.7265184,12 53.5286596,12 L55.913967,12 L60.0856912,12 L62.4713404,12 C64.2731397,12 66.4311285,12 66.4311285,8.50020374 C66.4311285,6.81733512 66.7374105,5 69,5 L62.4713404,5 Z" id="Fill-23" fill="#003CE5"></path>
                <path d="M63.4998822,7 C63.7761018,7 64,7.22384543 64,7.5 C64,7.77615457 63.7761018,8 63.4998822,8 C63.2238982,8 63,7.77615457 63,7.5 C63,7.22384543 63.2238982,7 63.4998822,7 Z M60.4188364,7 C60.7396336,7 61,7.22391365 61,7.49986161 C61,7.77608635 60.7396336,8 60.4188364,8 L52.5805207,8 C52.260045,8 52,7.77608635 52,7.49986161 C52,7.22391365 52.260045,7 52.5805207,7 L60.4188364,7 Z" id="Shape" fill="#27B7FF"></path>
                <path d="M86.4145756,87.70229 C83.7406197,87.70229 74.877349,92.9138335 74.0193858,90.2338428 C73.7720387,89.4831916 75.8737842,74.0682207 55.3584219,61.1428452 C52.4071694,59.2833174 50.3082426,55.8435082 51.2120109,52.4724529 C52.259184,48.563002 56.1586003,47.3843138 59.5270308,48.2876339 C86.5925105,55.5466325 92.4393447,77.943471 92.7328492,78.8771134 C93.7789653,82.2062111 91.6381093,86.3617657 88.311608,87.4092927 C87.6809082,87.6074449 87.0421044,87.70229 86.4145756,87.70229" id="Fill-49" fill="#FFC8E9"></path>
                <path d="M78.7444789,58.7761799 C78.8680913,58.6350595 79.0826997,58.6208665 79.2238201,58.7444789 L79.5312522,59.0220665 L79.7627232,59.2368712 L80.2955925,59.7440565 C80.5728392,60.0122978 80.865726,60.3022482 81.171652,60.6127204 C82.6278922,62.0906014 84.0840029,63.7301832 85.443696,65.4878729 C88.4304254,69.3488497 90.5257364,73.2187767 91.3319352,76.9278511 C91.371782,77.1111738 91.2554717,77.2920885 91.0721489,77.3319352 C90.8888262,77.371782 90.7079115,77.2554717 90.6680648,77.0721489 C89.886913,73.4783084 87.8366834,69.6916445 84.9063381,65.9035559 C83.5644613,64.1688974 82.1260327,62.5492259 80.6877337,61.0895527 C80.3858064,60.7831385 80.0968908,60.4971169 79.8235962,60.232693 L79.1794442,59.6219693 L78.7761799,59.2555211 C78.6350595,59.1319087 78.6208665,58.9173003 78.7444789,58.7761799 Z" id="Path" fill="#003CE5"></path>
            </g>
        </g>
    </g>
</svg>