<svg width="100" height="100" viewBox="0 0 100 100" xmlns="http://www.w3.org/2000/svg">
    <g fill="none" fill-rule="evenodd">
        <path d="M87.888 72.39C82.684 81.17 74.52 87.987 64.764 91.46A43.917 43.917 0 0 1 49.998 94C25.698 94 6 74.302 6 50.002 6 25.698 25.698 6 49.998 6 74.302 6 94 25.698 94 50.002c0 8.177-2.228 15.83-6.112 22.387z" fill="#DCEDFF"/>
        <path d="M43.566 47.738c4.317-.39 9.107 1.575 13.47 4.249l.723.452c.24.152.478.307.714.463l.705.473.348.24.688.484.676.49c.112.082.223.164.333.247l.657.495.641.496.627.496.307.248.896.737.575.484.556.478.536.469.515.458.964.878.662.618.793.76.84.827.657.666.751.788c4.608 4.646 9.661 8.473 14.9 11.43-5.198 7.44-12.633 13.2-21.336 16.296a43.86 43.86 0 0 1-13.568 2.524l-.824-.609c-15.499-15.222-23.587-23.42-24.264-24.593-.022-.038-.03-.11-.022-.215l.022-.18c.01-.068.025-.143.043-.225l.064-.269.085-.308.106-.348.126-.383.146-.418.165-.449.185-.478.205-.506.223-.531.242-.553.26-.574.278-.592.295-.608.155-.31.322-.627.339-.637.355-.646c.182-.325.37-.651.565-.979l.396-.656c3.1-5.031 7.591-10.074 12.903-10.552z" fill="#FFC8E9"/>
        <path d="m28.524 8.676 27.331-3.841a6 6 0 0 1 6.777 5.107l8.35 59.416a6 6 0 0 1-5.106 6.776l-27.331 3.842a6 6 0 0 1-6.777-5.107l-8.35-59.416a6 6 0 0 1 5.106-6.777z" fill="#005CFF"/>
        <path d="m29.706 11.338 25.747-3.619a4 4 0 0 1 4.518 3.405l8.072 57.435a4 4 0 0 1-3.405 4.518l-25.747 3.618a4 4 0 0 1-4.517-3.404l-8.072-57.436a4 4 0 0 1 3.404-4.517z" fill="#FFF"/>
        <path d="M41.992 6.783a4 4 0 1 1 1.113 7.923 4 4 0 0 1-1.113-7.923z" fill="#005CFF"/>
        <circle fill="#83F0FF" transform="rotate(-8 42.548 10.745)" cx="42.548" cy="10.745" r="2"/>
        <path d="M53.603 32.215a2.344 2.344 0 0 1 4.18 2.11l-.072.143-8.41 15.317a2.344 2.344 0 0 1-3.053.992l-.143-.074-6.903-4.32a2.34 2.34 0 0 1 2.133-4.166l.15.077 4.842 3.171 7.276-13.25z" fill="#FF7800"/>
        <path d="M31.244 39.883a4.302 4.302 0 0 1-1.342 4.578 4.261 4.261 0 0 1 2.911 2.826 4.294 4.294 0 0 1-.905 4.153 4.255 4.255 0 0 1 2.62 2.731 4.294 4.294 0 0 1-.929 4.18 4.266 4.266 0 0 1 3.305 2.918c.71 2.259-.555 4.673-2.825 5.393a.853.853 0 0 0-.425.285l-.152.222.014-.066-.1.323a4.334 4.334 0 0 1-5.17 2.725 4.266 4.266 0 0 1-3.043-5.242 8.42 8.42 0 0 1 .759-1.833l-.096-.024a4.266 4.266 0 0 1-3.04-5.243 8.417 8.417 0 0 1 .758-1.831 4.267 4.267 0 0 1-2.473-5.051c.14-.522.388-1.166.783-1.878a4.268 4.268 0 0 1-2.703-5.796c.226-.522.6-1.214 1.15-1.989 1.349-1.897 3.141-3.417 5.509-4.167 2.27-.72 4.685.528 5.394 2.786zM75.67 44.844a4.272 4.272 0 0 1 1.253 5.697l-.282.452-.193.344c-.1.186-.204.393-.31.62a16.679 16.679 0 0 0-1.254 3.864c-.821 4.17-.183 8.631 2.543 13.353 1.183 2.05.47 4.676-1.593 5.867a4.313 4.313 0 0 1-3.18.46l-10.712 3.392-.12-.625-.105-.686-.074-.587-.054-.507-.05-.561-.044-.615-.035-.666-.018-.472-.012-.494-.006-.514.001-.536.009-.556.016-.576.026-.596.035-.614.046-.633.057-.65.068-.67.08-.685.046-.349.1-.71.114-.726.13-.742c.022-.124.046-.25.07-.376l.152-.764c.134-.643.285-1.3.455-1.971l.213-.812.232-.825c.966-3.323 2.4-6.938 4.498-10.712a24.07 24.07 0 0 1 1.1-2.37l.246-.445.117-.202.305-.49.136-.203c1.357-1.954 4.04-2.451 5.994-1.11z" fill="#FFC8E9"/>
        <path d="M33.21 57.986a.3.3 0 0 1 .015.6c-2.156.055-4.44 1.496-6.845 4.352a.3.3 0 0 1-.459-.386c2.504-2.975 4.93-4.506 7.289-4.566zm-1.614-6.88a.3.3 0 1 1 0 .6c-2.692 0-5.235 1.413-7.636 4.265a.3.3 0 0 1-.46-.386c2.508-2.978 5.209-4.48 8.096-4.48zm-2.231-6.923a.3.3 0 0 1 .032.6c-2.795.149-5.09 1.552-6.906 4.233a.3.3 0 1 1-.497-.336c1.917-2.83 4.38-4.337 7.37-4.497z" fill="#003CE5"/>
    </g>
</svg>
