<svg width="100" height="100" viewBox="0 0 100 100" xmlns="http://www.w3.org/2000/svg">
    <g fill="none" fill-rule="evenodd">
        <path d="M92.686 60.714c-3.699 14.784-14.878 26.604-29.282 31.209A44.04 44.04 0 0 1 50 94C25.7 94 6 74.3 6 50S25.7 6 50 6s44 19.7 44 44c0 3.696-.456 7.285-1.314 10.714z" fill="#DCEDFF"/>
        <path d="m46.403 31.284.128.139.16.194.133.183.14.221.131.245.024.051a3.603 3.603 0 0 1 .268.807l.035.188.033.269.004.04a5.12 5.12 0 0 1-.184 1.76l-.041.143a6.28 6.28 0 0 1-.163.471l-.102.245-.084.181-.122.236-.129.227-.172.277-.132.198-.168.239-.195.26-.221.282-.251.302-.137.158-.297.332-.33.351-.178.182-.382.379-.419.395c-.145.135-.298.273-.457.413l-.497.429c-.258.218-.533.443-.823.673l-.604.467c-.313.237-.643.48-.99.727 2.563 5.696 6.578 7.914 11.273 8.748a32.582 32.582 0 0 1-1.984-4.053l-.258-.653-.239-.642a34.315 34.315 0 0 1-.113-.317l-.211-.626-.195-.613-.178-.599-.163-.583-.148-.567a34.738 34.738 0 0 1-.068-.277l-.127-.54-.113-.522-.1-.5-.13-.71-.106-.655-.084-.6-.064-.537-.048-.473-.042-.521-.031-.636-.001-.067c0-2.264 1.6-3.95 3.908-4.33 2.208-.363 3.689 1.488 4.884 4.037l.407.954.413.938.42.921c6.645 14.308 14.244 21.935 33.935 25.893-6.512 17.004-21.882 27.101-37.347 28.313-6.022-4.247-6.593-4.985-10.119-8.174l-1.621-1.59-.743-.746-.741-.758-1.119-1.16-2.694-2.816-.807-.832-.83-.846-.424-.427-.87-.864-.9-.877-.65-.625-.314-.317-.448-.467-.406-.439-.455-.508c-.053-.06-.107-.12-.161-.183l-.504-.591-.53-.647-.36-.46-.365-.48-.365-.5c-.061-.084-.122-.17-.182-.256l-.36-.524a28.28 28.28 0 0 1-.177-.268l-.348-.546c-1.542-2.486-2.723-5.343-2.295-7.882l-.12-.211c-1.217-2.217-2.101-5.333-.253-8.775a8.818 8.818 0 0 1 1.375-1.917l.03.162c-.767-3.744.794-7.348 4.102-9.637l.346-.23.135-.185c.247-.33.518-.664.838-.999 1.611-1.692 3.266-5.62 4.453-9.161l.275-.842.256-.818.235-.788.213-.749.188-.701c.03-.113.057-.223.084-.331.551-2.199 2.958-3.52 5.233-2.99 2.203.518 3.662 2.639 3.246 4.771l-.186.798-.078.299-.097.34-.12.379a13.01 13.01 0 0 1-.746 1.793c.187.042.376.1.568.178l.192.084c.043.02.087.04.13.063l.207.13.246.175c.113.083.218.169.317.256l.158.149.093.093z" fill="#FFC8E9"/>
        <path d="m45.875 4.406.272.041.23.042c.424.032.957.185 1.544.413l.255.103c.208.081.413.169.612.263l.399.195c.16.077.32.158.48.24l.482.253.479.261.469.264.675.394.626.378.728.454 1.06.69v2.62l.036-.031c.473-.43.992-.81 1.547-1.137a10.032 10.032 0 0 1 5.435-1.41l.384.02c.593.04 1.191.133 1.788.283a10.03 10.03 0 0 1 2.262.868c1.001.449 1.972.98 2.84 1.502l.631.39c.203.128.399.254.586.377l.534.358.476.33.41.293-1.284 1.12a9.175 9.175 0 0 1 .576 6.34c-.78 2.91-2.876 5.155-5.507 6.287l-12.717 7.229.675.134-1.304 5.374-4.715-2.832.059-.119.11-.26c.463-1.138.894-2.984-.303-4.405-.753-1.19-1.913-1.737-3.482-1.642l-.218.017-6.356-10.267c-1.683-2.75-2.433-5.504-1.652-8.414 1.268-4.727 5.998-7.693 10.878-7.016z" fill="#EF3300"/>
        <path d="M74.858 22.94c-.78 2.91-2.876 5.154-5.507 6.287L51.554 39.344l-10.585-16.69c-1.598-2.474-2.302-5.702-1.52-8.612 1.361-5.077 6.717-8.124 11.963-6.805 2.692.676 4.83 2.37 6.087 4.545.384.656.687 1.359.895 2.086a9.458 9.458 0 0 1 1.826-1.4 10.046 10.046 0 0 1 7.607-1.106c5.246 1.318 8.393 6.501 7.031 11.578" fill="#FD5C00"/>
        <path d="M40.355 42.946a.304.304 0 0 1-.067.433 55.783 55.783 0 0 1-4.61 2.935c2.85.542 6.037 1.856 9.372 3.889l.534.33c2.102 1.32 2.594 3.837 1.196 6.12-.719 1.173-1.771 1.629-2.556 1.802a4.365 4.365 0 0 1 1.482 2.106 4.256 4.256 0 0 1-.307 3.363c-.834 1.548-2.167 2.352-3.805 2.352-.627 0-1.3-.118-2.005-.357l-.305-.11a36.098 36.098 0 0 1-2.54-1.003l-1.42-.62-.395-.166c-.123-.05-.236-.094-.338-.131-.425-.157-.732.076-.865.323-.147.273-.152.701.318 1.012.146.097.184.29.084.431-.1.141-.3.177-.445.081-.76-.502-.805-1.29-.525-1.811.325-.602 1.007-.856 1.66-.616l.169.064.38.154.661.285.972.425c.638.275 1.344.57 2.07.836l.44.155c2.39.916 4.275.348 5.32-1.591a3.656 3.656 0 0 0 .264-2.89 3.798 3.798 0 0 0-1.925-2.223l-.495-.247-.528-.255-.557-.26-.584-.263-.608-.262a40.543 40.543 0 0 0-.312-.13l-.639-.258-.655-.25c-3.422-1.266-7.402-2.129-10.179-.845-1.626.751-2.743 2.107-3.144 3.818a.32.32 0 0 1-.383.234.31.31 0 0 1-.242-.372c.446-1.899 1.686-3.405 3.493-4.24 3.05-1.409 7.371-.426 10.987.943l.649.253.63.259.611.262.587.262.56.26.532.256.506.249.188-.01.218-.023c.696-.095 1.731-.437 2.424-1.569 1.193-1.947.858-3.998-.82-5.168l-.206-.135c-5.696-3.579-10.94-5.04-14.767-4.116-1.387.335-2.601.957-3.608 1.849a.328.328 0 0 1-.453-.02.303.303 0 0 1 .02-.438c1.087-.962 2.394-1.632 3.885-1.993 1.342-.324 2.843-.372 4.467-.154a.324.324 0 0 1 .107-.097 56.135 56.135 0 0 0 5.054-3.184.327.327 0 0 1 .448.066zm11.761 9.036.114.851.097.651.204 1.236.176.96.1.51.11.529.117.542.126.552.205.842.148.565c.025.094.05.188.077.283l.161.563.17.558.18.55c.092.273.188.54.287.803l.203.516c.173.422.356.824.55 1.199.079.153.014.339-.144.416a.33.33 0 0 1-.143.032.322.322 0 0 1-.287-.171c-.444-.859-.833-1.85-1.172-2.885l-.18-.568-.17-.575-.162-.577-.15-.577-.142-.573-.133-.567-.123-.557-.169-.81-.101-.518-.177-.972-.175-1.06-.144-.98-.09-.699a.313.313 0 0 1 .283-.343.317.317 0 0 1 .354.274zm-7.844-22.22a.31.31 0 0 1 .256.361.32.32 0 0 1-.373.249c-1.594-.287-2.683.487-3.543 1.4l-.24.265c-.04.044-.078.089-.116.133l-.797.961-.536.633-.259.297-.283.31-.31.32-.227.22-.244.226-.265.234-.287.242-.313.251-.34.261-.37.271-.404.283-.214.146-.456.301-.242.156-.514.322-.556.336-.294.173-.623.36-.67.376-.722.394a.328.328 0 0 1-.435-.12.305.305 0 0 1 .124-.423l.69-.375.641-.36.598-.344.283-.166.534-.322.495-.308.458-.295.423-.283.39-.27.36-.26.33-.251c.054-.04.105-.081.156-.121l.292-.237.27-.228.248-.22.337-.318.205-.205.283-.298.343-.384.61-.718.172-.206.51-.622.24-.278.253-.278c.956-1.015 2.23-1.931 4.132-1.591z" fill="#003CE5"/>
    </g>
</svg>
