<svg width="100" height="100" viewBox="0 0 100 100" xmlns="http://www.w3.org/2000/svg">
    <g fill="none" fill-rule="evenodd">
        <circle fill="#EDF6FC" cx="50.5" cy="50.5" r="44.5"/>
        <path d="M91.36 67.473c-20.476-3.41-29.257-9.123-35.218-23.769-.971-2.13-2.17-3.681-3.963-3.376-1.871.317-2.913 1.492-2.913 3.386 0 .417-.139 4.811 3.253 10.845-3.807-.7-7.068-2.552-9.146-7.317 3.676-2.696 4.893-4.681 5.217-5.337 0 0 1.787-3.25-1.159-5.085a2.977 2.977 0 0 0-.727-.263c.675-1.367.887-2.539.964-2.859.446-1.84-.753-3.71-2.597-4.156-1.846-.444-3.798.66-4.246 2.498-.79 3.247-2.747 9.158-4.63 11.195-.322.35-.587.698-.826 1.044-2.798 1.877-4.163 4.897-3.587 8.066a7.41 7.41 0 0 0-1.125 1.597c-1.498 2.878-.781 5.486.207 7.339.032.06.064.12.097.178-.845 5.165 6.05 11.914 6.05 11.914 7.862 7.71 15.254 15.22 26.863 19.594 18.153-6.018 25.436-19.906 27.748-25.45" fill="#FFC8E9"/>
        <path d="M52.608 54.577a.25.25 0 0 1 .277.221l.065.518.092.654.111.717c.23 1.419.516 2.837.862 4.16.39 1.489.831 2.76 1.325 3.745a.25.25 0 1 1-.447.224c-.512-1.02-.964-2.323-1.362-3.843-.35-1.34-.64-2.773-.871-4.206l-.113-.724-.128-.928-.031-.261a.25.25 0 0 1 .22-.277z" fill="#003CE5"/>
        <path fill="#ACCFF9" d="m56.101 6.331-15.068 5.343 34.065 37.32z"/>
        <path fill="#6B97FF" d="m36.586 18.173 38.512 30.82-34.065-37.319z"/>
        <path fill="#ACCFF9" d="m9.75 18.826 65.348 30.168-42.923-34.352z"/>
        <path fill="#5E86FF" d="m33.249 36.456 41.849 12.538L32.06 29.119z"/>
        <path d="M47.09 35.1a.423.423 0 0 1-.207-.048l-6.293-3.295a.377.377 0 0 1-.16-.528.423.423 0 0 1 .558-.152l6.293 3.295c.2.104.27.34.16.528a.416.416 0 0 1-.352.2M37.35 30.066a.422.422 0 0 1-.212-.04l-18.89-9.03a.416.416 0 0 1-.196-.559.421.421 0 0 1 .562-.194l18.89 9.031a.416.416 0 0 1-.154.792" fill="#FFF"/>
        <path d="M31.798 52.477c-.68-3.419.893-6.699 4.105-8.559 5.25-3.04 6.58-5.16 6.592-5.18-.052.086-.07.132-.07.132s2.276-3.488 5.006-2.05c2.947 1.834 1.159 5.085 1.159 5.085-.423.853-2.675 4.173-9.573 8.169" fill="#FFC8E9"/>
        <path d="M42.995 47.193a.25.25 0 0 1 .296.403 45.544 45.544 0 0 1-4.148 2.694.25.25 0 0 1-.25-.433 45.046 45.046 0 0 0 4.102-2.664zM46.528 36.227a.25.25 0 1 1-.09.492c-1.189-.22-2.043.216-2.987 1.287l-.224.265-.781.967-.297.356-.295.338c-.59.659-1.199 1.228-1.996 1.824l-.415.301-.22.153-.472.314a29.58 29.58 0 0 1-.515.326l-.562.342-.616.361-.674.383-.36.201a.25.25 0 1 1-.242-.437l.693-.39.633-.364.579-.345.527-.327.483-.312c.614-.408 1.12-.786 1.567-1.17l.326-.288c.053-.048.105-.097.156-.146l.302-.297c.05-.05.099-.101.147-.152l.29-.313.285-.328.144-.17.415-.508.57-.708c1.116-1.337 2.154-1.927 3.629-1.655z" fill="#003CE5"/>
        <path d="M45.756 60.037c.717-.219 1.848-.298 2.585-1.467 1.01-1.603.786-3.683-.888-4.767-1.19-.77-7.252-4.728-12.213-3.493-2.023.504-3.608 1.76-4.583 3.633l5.778 5.849 9.32.245z" fill="#FFC8E9"/>
        <path d="M35.18 50.067c.903-.225 1.873-.29 2.898-.212 2.017.154 4.162.851 6.34 1.923.695.34 1.359.704 1.996 1.083l.574.349.381.242.22.141c1.74 1.127 2.088 3.217.967 5.105-.649 1.091-1.714 1.589-2.8 1.589a.25.25 0 0 1 0-.5c.922 0 1.82-.42 2.37-1.344.991-1.668.693-3.458-.809-4.43l-.411-.264-.36-.225-.387-.233a28.191 28.191 0 0 0-1.96-1.065c-2.127-1.045-4.216-1.724-6.16-1.873-.974-.074-1.89-.012-2.739.2a6.71 6.71 0 0 0-2.932 1.549.25.25 0 1 1-.337-.37 7.21 7.21 0 0 1 3.148-1.665z" fill="#003CE5"/>
        <path d="M30.992 61.213c.319-1.571 1.284-2.813 2.72-3.496 3.444-1.64 9.025.749 12.043 2.32a3.423 3.423 0 0 1 1.459 4.625c-.878 1.678-2.528 2.286-4.636 1.455-1.428-.686-3.084-1.424-3.892-1.63-.807-.204-1.538.958-.601 1.596" fill="#FFC8E9"/>
        <path d="M33.604 57.491c2.94-1.399 7.403-.206 12.267 2.324a3.673 3.673 0 0 1 1.564 4.963c-.926 1.772-2.648 2.388-4.718 1.658l-.223-.084a24.537 24.537 0 0 1-1.416-.557l-2.066-.912-.333-.14c-.669-.252-1.12.68-.454 1.133a.25.25 0 0 1-.281.414c-1.146-.781-.323-2.48.912-2.014l.342.143 2.076.916c.372.159.72.3 1.06.427l.336.122c1.947.769 3.485.263 4.322-1.338a3.173 3.173 0 0 0-1.351-4.287c-4.727-2.459-9.08-3.622-11.822-2.316a4.592 4.592 0 0 0-2.556 3.198.25.25 0 1 1-.487-.111 5.092 5.092 0 0 1 2.828-3.539z" fill="#003CE5"/>
    </g>
</svg>
