<svg xmlns="http://www.w3.org/2000/svg" xmlns:xlink="http://www.w3.org/1999/xlink" width="49" height="49" viewBox="0 0 49 49">
    <defs>
        <path id="a" d="M8.25 18.75A.75.75 0 0 0 9 18V9.75a.75.75 0 0 0-1.5 0V18c0 .414.336.75.75.75zm3.75 0a.75.75 0 0 0 .75-.75V9.75a.75.75 0 1 0-1.5 0V18c0 .414.336.75.75.75zm3.75 0a.75.75 0 0 0 .75-.75V9.75a.75.75 0 1 0-1.5 0V18c0 .414.336.75.75.75zm6-13.5h-4.5V4.5a3 3 0 0 0-3-3h-4.5a3 3 0 0 0-3 3v.75h-4.5a.75.75 0 0 0 0 1.5h1.5V19.5a3 3 0 0 0 3 3h10.5a3 3 0 0 0 3-3V6.75h1.5a.75.75 0 1 0 0-1.5zM8.25 4.5A1.5 1.5 0 0 1 9.75 3h4.5a1.5 1.5 0 0 1 1.5 1.5v.735h-7.5V4.5zm10.5 15a1.5 1.5 0 0 1-1.5 1.5H6.75a1.5 1.5 0 0 1-1.5-1.5V6.75h13.5V19.5z"/>
    </defs>
    <g fill="none" fill-rule="evenodd">
        <path fill="#F1F1F1" fill-rule="nonzero" d="M0 0h49v49H0z"/>
        <g transform="translate(12 12)">
            <mask id="b" fill="#fff">
                <use xlink:href="#a"/>
            </mask>
            <use fill="#282828" fill-rule="nonzero" xlink:href="#a"/>
            <g fill="#012D74" mask="url(#b)">
                <path d="M0 0h24v24H0z"/>
            </g>
        </g>
    </g>
</svg>
