<svg xmlns="http://www.w3.org/2000/svg" xmlns:xlink="http://www.w3.org/1999/xlink" width="49" height="49" viewBox="0 0 49 49">
    <defs>
        <path id="a" d="M20.97 18.735l-12.108.017c-.867 0-1.384-.209-1.962-.782l-4.735-4.78c-.299-.28-.657-.696-.665-1.104-.009-.473.422-1.007.79-1.377l4.607-4.69c.593-.584 1.034-.754 1.965-.754l12.12-.016c.512.001.864.258 1.068.474.278.292.443.678.443 1.036l.013 10.491c0 .702-.655 1.485-1.536 1.485zm3.023-11.979c0-1.498-1.272-3.006-3.012-3.006l-12.12.015c-1.272 0-2.11.291-3.02 1.191L1.22 9.66c-1.676 1.683-1.551 3.253-.078 4.626l4.69 4.74c.927.918 1.84 1.225 3.03 1.225l12.11-.015c1.735 0 3.034-1.486 3.034-2.985l-.013-10.494zM17.78 8.473a.75.75 0 0 0-1.06 0l-2.471 2.469-2.47-2.47a.75.75 0 0 0-1.06 1.061l2.47 2.47-2.47 2.47a.75.75 0 0 0 1.061 1.06l2.469-2.469 2.47 2.47a.748.748 0 0 0 1.06 0 .75.75 0 0 0 0-1.061l-2.468-2.47 2.469-2.47a.75.75 0 0 0 0-1.06"/>
    </defs>
    <g fill="none" fill-rule="evenodd">
        <path fill="#F1F1F1" fill-rule="nonzero" d="M0 0h49v49H0z"/>
        <g transform="translate(12 12)">
            <mask id="b" fill="#fff">
                <use xlink:href="#a"/>
            </mask>
            <use fill="#000" xlink:href="#a"/>
            <g fill="#012D74" mask="url(#b)">
                <path d="M0 0h24v24H0z"/>
            </g>
        </g>
    </g>
</svg>
